<svg xmlns="http://www.w3.org/2000/svg" xml:space="preserve" id="Ebene_1" x="0" y="0" style="enable-background:new 0 0 644 86.3" version="1.1" viewBox="0 0 644 86.3"><style>.st0{fill:#49caed}.st1{fill:#122b54}</style><path d="m535.5 45.7 2-10.7h-33.3l-2.1 10.7h33.4zM537.1 65.2l1.5-7.9h-38.8L497.7 68h36.1c1.6.1 3-1.1 3.3-2.8zM543 13.5h-34.8l-2.1 10.7h38.8l1.3-6.5c.5-2.2-1.1-4.2-3.2-4.2z" class="st0"/><path d="M376.1 13.2h14.3c8.5 0 15 2 19.3 5.9 4.4 4 6.5 9.7 6.5 17.3 0 6.1-1.3 11.5-4 16.3-2.6 4.8-6.4 8.6-11.4 11.3-4.9 2.7-10.7 4.1-17.3 4.1h-18l10.6-54.9zm7.9 44.2c4.2 0 7.8-.8 11-2.5 3.1-1.6 5.6-3.9 7.3-6.9 1.7-2.9 2.5-6.4 2.5-10.4 0-9.1-5.2-13.7-15.5-13.7h-4.1l-6.5 33.5h5.3zM442.2 13.2 431.6 68h-11l10.5-54.8h11.1zM489.4 41c-2.8 3.6-6.4 6.1-10.8 7.3l9.5 19.7H476l-8.8-19h-7.6l-3.7 19h-11l10.5-54.8h18.5c6.5 0 11.3 1.4 14.7 4.2 3.3 2.8 5 6.6 5 11.4 0 4.5-1.4 8.6-4.2 12.2zm-27.9-2h12.1c2.8 0 4.9-.8 6.4-2.4 1.5-1.6 2.3-3.6 2.3-6.1 0-2.2-.7-3.8-2-5-1.3-1.1-3.6-1.7-6.8-1.7h-9.1L461.5 39zM553.6 62.8c-4.1-4.2-6.1-10-6.1-17.4 0-6.1 1.3-11.7 3.8-16.8 2.6-5 6.2-9 10.8-12 4.6-2.9 9.8-4.4 15.7-4.4 3.7 0 7.1.6 10.2 1.7 3.2 1.1 5.6 2.7 7.4 4.6l-4.4 9.2c-1.6-1.5-3.5-2.7-5.8-3.6-2.3-.8-4.7-1.3-7.2-1.3-3.7 0-7 .9-10 2.8-2.9 1.9-5.2 4.4-6.8 7.7-1.6 3.2-2.4 6.9-2.4 10.9 0 4.5 1.1 8 3.2 10.4s5.2 3.7 9.4 3.7c2.5 0 5-.4 7.5-1.2 2.5-.8 4.9-2 7.2-3.6l1.1 11.3c-2.4 1.4-5 2.4-7.8 3.2-2.8.8-5.8 1.1-8.8 1.1-7.2-.1-12.9-2.2-17-6.3zM641.9 23.9h-15.2L618.3 68h-11l8.5-44.1h-15.1l2-10.7H644l-2.1 10.7zM31.7 45.7H19.8L26.2 25l5.5 20.7zm-18 22.8 4-13.6h16l3.8 13.6h14.8L37.6 16.7c-.8-3.1-2.7-4.5-5.9-4.5h-21v4.9h1.8c2.2 0 3.4.8 3.4 2.5 0 1.1-.2 2-1.1 4.5L0 68.5h13.7zM69.5 68.5v-52c0-2.7-1.6-4.3-4.2-4.3h-13v4.9h.8c2.2 0 3.1.9 3.1 3.1v48.2l13.3.1zM92 68.5v-52c0-2.7-1.6-4.3-4.2-4.3h-13v4.9h.8c2.2 0 3.1.9 3.1 3.1v48.2c0 .1 13.3.1 13.3.1zM115.1 17.4c0-3.8-2.8-6-7.6-6s-7.6 2.3-7.6 6 2.9 6.1 7.6 6.1 7.6-2.3 7.6-6.1m-.3 51.1V30.6c0-2.7-1.6-4.3-4.2-4.3H97.8v4.8h.8c2.2 0 3.1 1 3.1 3.2v34.2h13.1zM143.8 48.2v8.2c-2.2 2.3-4.9 3.6-7.2 3.6s-3.2-1.2-3.2-4.3.7-4.5 3-5.5c1.8-.7 4.1-1.4 7.4-2M126 38.4c4.4-2.1 9.2-3.3 13-3.3 3.6 0 4.8 1.3 4.8 4.9v1c-5.4.8-7.1 1.2-10.1 1.9-1.8.4-3.4.9-5 1.6-5.3 2.1-7.8 6.2-7.8 12.6 0 8 3.4 11.9 10.6 11.9 2.6 0 5-.5 7.1-1.3 1.9-.8 2.9-1.5 5.6-3.6v.6c0 2.6 1.3 3.9 4 3.9h12.1v-4.5h-.6c-2.3 0-3.1-1-3.1-3.7V40.1c0-10.7-3.7-14.4-14.4-14.4-3.4 0-6.8.4-10.1 1.2-3.3.8-5 1.4-8.9 3.4l2.8 8.1zM179.5 68.5V40c2.2-2.4 4.5-3.6 7.1-3.6 2.8 0 3.5 1.1 3.5 5.3v26.7h13.1V39.8c0-6.7-.5-8.8-2.6-11-1.8-2-4.5-3-7.9-3-5.1 0-8.8 1.6-13.6 6.2v-1.7c0-2.6-1.4-4-4.1-4h-12.5v4.8h.8c2.2 0 3.1 1 3.1 3.2v34.2h13.1zM242.2 59.6h-18.4L241.4 35v-8.7h-27.5c-3.1 0-4.6 1.4-4.6 4.6v7.7h4.9v-.8c0-1.9 1-2.9 3.1-2.9h9.5l-17.7 24.9v8.7h33.1v-8.9zM311.2 67.4V19.8c0-3.8-1.4-5.1-5-5.1H295V20h.7c2.5 0 3 .6 3 3.6v43.8h12.5zm5.5 0h12.4V30.3c0-3.7-1.4-5.1-5.1-5.1h-7.3v42.2zm-23.4 0V25.2H286c-3.6 0-5 1.3-5 5.1v37.1h12.3zm47.5-24.2c0 21-15.1 36.3-35.8 36.3s-35.8-15.3-35.8-36.3 15-36.3 35.8-36.3 35.8 15.4 35.8 36.3m7.4 0C348.2 18.5 329.7 0 305 0s-43.2 18.5-43.2 43.2 18.5 43.2 43.2 43.2 43.2-18.5 43.2-43.2" class="st1"/></svg>