<svg id="Layer_1" data-name="Layer 1" xmlns="http://www.w3.org/2000/svg" viewBox="0 0 114.11 38"><defs><style>.cls-1,.cls-2{fill:red;}.cls-2{fill-rule:evenodd;}.cls-3{fill:#0d57a6;}</style></defs><path class="cls-1" d="M33.73,26.17a1.63,1.63,0,1,1-1.62-1.63h0A1.62,1.62,0,0,1,33.73,26.17ZM37,32H29.51V31H37v-.65a1.62,1.62,0,0,0-1.62-1.62h-6.5a1.61,1.61,0,0,0-1.62,1.62h0V34h7.47v1H27.24v.64a1.62,1.62,0,0,0,1.62,1.62h6.5A1.63,1.63,0,0,0,37,35.58Z" transform="translate(-3.02 -1)"/><polygon class="cls-1" points="42.17 31.06 42.17 30.36 38.84 30.36 38.84 36.21 39.68 36.21 39.68 33.41 41.76 33.41 41.76 32.73 39.68 32.73 39.68 31.06 42.17 31.06 42.17 31.06"/><path class="cls-2" d="M47,31.6A.54.54,0,0,0,46,31.54a.54.54,0,0,0,.5.57h0A.53.53,0,0,0,47,31.6Zm0,5.61V33H45.62v.54a5,5,0,0,1,.56.07v3.65Z" transform="translate(-3.02 -1)"/><path class="cls-1" d="M52,37.21v-3a1.26,1.26,0,0,0-1.38-1.39,1.5,1.5,0,0,0-1.34.68V33h-.79v4.26h.82V34.74a1.12,1.12,0,0,1,1.06-1.17h0c.55,0,.82.28.82.92v2.72Z" transform="translate(-3.02 -1)"/><path class="cls-2" d="M56.35,37.21V34.28c0-1-.51-1.41-1.64-1.41a4.47,4.47,0,0,0-1.36.19v.67a3.28,3.28,0,0,1,1.2-.23c.74,0,1,.25,1,.8v.22h-.43a3.59,3.59,0,0,0-1.22.2A1.29,1.29,0,0,0,53,36a1.19,1.19,0,0,0,1.32,1.29,1.85,1.85,0,0,0,1.23-.45v.36Zm-.81-1a1.4,1.4,0,0,1-1,.4.64.64,0,0,1-.72-.69c0-.64.46-.85,1.41-.85h.3v1.14Z" transform="translate(-3.02 -1)"/><path class="cls-1" d="M61.22,37.21v-3a1.26,1.26,0,0,0-1.37-1.39,1.51,1.51,0,0,0-1.34.68V33h-.79v4.26h.82V34.74a1.12,1.12,0,0,1,1.06-1.17h0c.55,0,.82.28.82.92v2.72Z" transform="translate(-3.02 -1)"/><path class="cls-1" d="M65.56,37.21v-.64H63.11c.24-.37.69-1,1.14-1.51s1-1.25,1.23-1.48V33h-3.2v.64H64.5c-.19.23-.6.69-1,1.28s-1.05,1.4-1.25,1.71v.63Z" transform="translate(-3.02 -1)"/><path class="cls-2" d="M69.94,37.22V33h-.78l0,.36A1.49,1.49,0,0,0,68,32.86c-1,0-1.74.8-1.74,2.21s.7,2.15,1.68,2.15a1.31,1.31,0,0,0,1.22-.62v.66c0,.73-.39,1.08-1.24,1.08a4,4,0,0,1-1-.13l-.12.62a5.31,5.31,0,0,0,1.32.17,2,2,0,0,0,1.42-.46,1.65,1.65,0,0,0,.46-1.31Zm-.82-2c0,.8-.38,1.34-1,1.34-.8,0-1-.71-1-1.5,0-1,.45-1.52,1.09-1.52a1.17,1.17,0,0,1,.91.4v1.28Z" transform="translate(-3.02 -1)"/><path class="cls-1" d="M73.64,33.73V33a1.66,1.66,0,0,0-.32,0,1.34,1.34,0,0,0-1.2.83l0-.81h-.78V37.2h.82V34.9a1.19,1.19,0,0,1,1.18-1.2h0a1.36,1.36,0,0,1,.29,0Z" transform="translate(-3.02 -1)"/><path class="cls-1" d="M77.94,37.21V33h-.82v2.49A1.13,1.13,0,0,1,76,36.61h0c-.54,0-.8-.27-.8-.9V33h-.82v2.94a1.24,1.24,0,0,0,1.37,1.41,1.53,1.53,0,0,0,1.34-.69v.6Z" transform="translate(-3.02 -1)"/><path class="cls-2" d="M83.05,35c0-1.39-.61-2.15-1.66-2.15a1.32,1.32,0,0,0-1.27.71l0-.63h-.78v6h.82V37a1.58,1.58,0,0,0,1.07.34C82.4,37.29,83,36.46,83,35Zm-.88,0a2.46,2.46,0,0,1-.12.85,1,1,0,0,1-1,.74,1.24,1.24,0,0,1-.91-.4V35.14c0-.93.37-1.58,1-1.58s1,.62,1,1.48Z" transform="translate(-3.02 -1)"/><path class="cls-2" d="M88,35c0-1.39-.61-2.15-1.66-2.15a1.32,1.32,0,0,0-1.27.71L85,33h-.78v6h.81V37a1.62,1.62,0,0,0,1.08.34c1.19,0,1.83-.83,1.83-2.28Zm-.88,0a3.06,3.06,0,0,1-.12.85,1,1,0,0,1-1,.74,1.24,1.24,0,0,1-.91-.4V35.14c0-.93.37-1.58,1-1.58s1,.62,1,1.48Z" transform="translate(-3.02 -1)"/><path class="cls-2" d="M92.57,34.84c0-1.28-.58-2-1.72-2S89,33.76,89,35.09a2,2,0,0,0,2,2.22,4.07,4.07,0,0,0,1.3-.16l-.16-.62a4.47,4.47,0,0,1-1,.14c-.82,0-1.22-.48-1.29-1.34h2.72c0-.14,0-.32,0-.49Zm-.86-.1h-1.9c0-.81.38-1.29,1-1.29s.88.4.88,1.1v.19Z" transform="translate(-3.02 -1)"/><path class="cls-3" d="M3,16V6.63L11,6.6a3.47,3.47,0,0,1,2.33.66,2.43,2.43,0,0,1,.76,2,2.16,2.16,0,0,1-.87,1.91A2.11,2.11,0,0,1,14,12a3,3,0,0,1,.28,1.34,2.61,2.61,0,0,1-.76,2,3.35,3.35,0,0,1-2.33.69Zm7.69-7.75H5.13V10.4h5.58q1.2,0,1.2-1.08C11.92,8.64,11.52,8.29,10.71,8.29Zm.27,3.8H5.13v2.25H11q1.2,0,1.2-1.14C12.18,12.43,11.78,12.09,11,12.09Z" transform="translate(-3.02 -1)"/><path class="cls-3" d="M17.38,16a2.28,2.28,0,0,1-1.64-.54,2.39,2.39,0,0,1,0-3.08,2.28,2.28,0,0,1,1.64-.54h5.07v-.31a.71.71,0,0,0-.8-.81H16.06V9.24h6.1a2.25,2.25,0,0,1,1.7.55,2.2,2.2,0,0,1,.5,1.54V16Zm.34-1.52h4.73V13.4H17.72a.52.52,0,0,0-.39.15.6.6,0,0,0-.14.41.65.65,0,0,0,.14.4.48.48,0,0,0,.39.16Z" transform="translate(-3.02 -1)"/><path class="cls-3" d="M36.86,16a2.3,2.3,0,0,1-1.64-.54,2.37,2.37,0,0,1,0-3.08,2.3,2.3,0,0,1,1.64-.54h5.07v-.31a.71.71,0,0,0-.79-.81h-5.6V9.24h6.1a2.25,2.25,0,0,1,1.7.55,2.16,2.16,0,0,1,.5,1.54V16Zm.34-1.52h4.73V13.4H37.2a.52.52,0,0,0-.39.15.66.66,0,0,0-.14.41.65.65,0,0,0,.14.4.49.49,0,0,0,.39.16Z" transform="translate(-3.02 -1)"/><path class="cls-3" d="M45.29,16V9.24h5.2a2.18,2.18,0,0,1,1.68.58,2.1,2.1,0,0,1,.55,1.51v1.41H50.78V11.57a.71.71,0,0,0-.8-.8H47.23V16Z" transform="translate(-3.02 -1)"/><rect class="cls-3" x="50.76" y="5.61" width="1.91" height="1.47"/><rect class="cls-3" x="50.76" y="8.24" width="1.91" height="6.8"/><path class="cls-3" d="M59,16a2.27,2.27,0,0,1-1.63-.54,2.37,2.37,0,0,1,0-3.08A2.27,2.27,0,0,1,59,11.88H64v-.31a.71.71,0,0,0-.79-.81h-5.6V9.24h6.09a2.24,2.24,0,0,1,1.7.55,2.21,2.21,0,0,1,.51,1.54V16Zm.35-1.52H64V13.4H59.3a.51.51,0,0,0-.39.15.56.56,0,0,0-.14.41.55.55,0,0,0,.14.4.48.48,0,0,0,.39.16Z" transform="translate(-3.02 -1)"/><rect class="cls-1" x="33.9" y="8.04" width="0.49" height="0.49" transform="translate(10.13 35.46) rotate(-66.94)"/><rect class="cls-1" x="33.2" y="7.75" width="0.49" height="0.49" transform="translate(9.96 34.63) rotate(-66.93)"/><rect class="cls-1" x="32.49" y="7.45" width="0.49" height="0.49" transform="translate(9.81 33.79) rotate(-66.93)"/><rect class="cls-1" x="34.06" y="7.16" width="0.47" height="0.47" transform="translate(11.08 35.08) rotate(-67.03)"/><rect class="cls-1" x="33.51" y="7.03" width="0.47" height="0.47" transform="translate(10.83 34.46) rotate(-66.94)"/><rect class="cls-1" x="32.8" y="6.72" width="0.47" height="0.47" transform="translate(10.68 33.62) rotate(-66.94)"/><rect class="cls-1" x="34.54" y="6.62" width="0.44" height="0.44" transform="translate(11.83 35.15) rotate(-66.94)"/><rect class="cls-1" x="33.83" y="6.32" width="0.44" height="0.44" transform="translate(11.68 34.3) rotate(-66.94)"/><rect class="cls-1" x="33.12" y="6.01" width="0.44" height="0.44" transform="translate(11.53 33.47) rotate(-66.94)"/><rect class="cls-1" x="34.87" y="5.93" width="0.41" height="0.41" transform="translate(12.68 35) rotate(-66.94)"/><rect class="cls-1" x="34.16" y="5.62" width="0.41" height="0.41" transform="translate(12.52 34.16) rotate(-66.94)"/><rect class="cls-1" x="33.44" y="5.32" width="0.41" height="0.41" transform="translate(12.37 33.32) rotate(-66.94)"/><rect class="cls-1" x="35.19" y="5.21" width="0.38" height="0.38" transform="translate(13.53 34.83) rotate(-66.93)"/><rect class="cls-1" x="34.48" y="4.91" width="0.38" height="0.38" transform="translate(13.38 34) rotate(-66.94)"/><rect class="cls-1" x="33.77" y="4.61" width="0.38" height="0.38" transform="translate(13.22 33.16) rotate(-66.94)"/><rect class="cls-1" x="35.51" y="4.49" width="0.35" height="0.35" transform="translate(14.39 34.67) rotate(-66.94)"/><rect class="cls-1" x="34.8" y="4.2" width="0.35" height="0.35" transform="translate(14.22 33.84) rotate(-66.93)"/><rect class="cls-1" x="34.09" y="3.9" width="0.35" height="0.35" transform="translate(14.07 33) rotate(-66.93)"/><rect class="cls-1" x="35.83" y="3.79" width="0.32" height="0.32" transform="translate(15.24 34.52) rotate(-66.94)"/><rect class="cls-1" x="35.12" y="3.48" width="0.32" height="0.32" transform="translate(15.09 33.68) rotate(-66.94)"/><rect class="cls-1" x="34.41" y="3.18" width="0.32" height="0.32" transform="translate(14.94 32.84) rotate(-66.94)"/><rect class="cls-1" x="36.15" y="3.08" width="0.29" height="0.29" transform="translate(16.1 34.36) rotate(-66.94)"/><rect class="cls-1" x="35.44" y="2.77" width="0.29" height="0.29" transform="translate(15.94 33.52) rotate(-66.94)"/><rect class="cls-1" x="34.73" y="2.47" width="0.29" height="0.29" transform="translate(15.79 32.68) rotate(-66.94)"/><rect class="cls-1" x="36.48" y="2.38" width="0.27" height="0.27" transform="translate(16.94 34.22) rotate(-66.94)"/><rect class="cls-1" x="35.76" y="2.08" width="0.27" height="0.27" transform="translate(16.78 33.38) rotate(-66.94)"/><rect class="cls-1" x="35.05" y="1.78" width="0.27" height="0.27" transform="translate(16.63 32.54) rotate(-66.94)"/><rect class="cls-1" x="36.8" y="1.67" width="0.24" height="0.24" transform="translate(17.8 34.06) rotate(-66.95)"/><rect class="cls-1" x="37.07" y="1.03" width="0.22" height="0.22" transform="translate(18.54 33.91) rotate(-66.93)"/><rect class="cls-1" x="36.09" y="1.38" width="0.24" height="0.24" transform="translate(17.63 33.22) rotate(-66.94)"/><polygon class="cls-1" points="28.49 12.6 28.19 13.3 28.13 13.27 28.43 12.57 27.77 12.29 27.47 12.99 27.41 12.97 27.71 12.27 27.06 11.99 26.53 13.22 24.42 8.24 21.97 8.24 24.84 15.1 28.2 15.1 29.14 12.88 28.49 12.6"/><rect class="cls-1" x="31.65" y="13" width="0.68" height="0.68" transform="translate(4.17 36.56) rotate(-66.94)"/><rect class="cls-1" x="30.94" y="12.7" width="0.68" height="0.68" transform="translate(4.01 35.72) rotate(-66.94)"/><rect class="cls-1" x="30.23" y="12.39" width="0.68" height="0.68" transform="translate(3.86 34.88) rotate(-66.94)"/><rect class="cls-1" x="31.98" y="12.3" width="0.66" height="0.66" transform="translate(5.02 36.41) rotate(-66.94)"/><rect class="cls-1" x="31.27" y="11.99" width="0.66" height="0.66" transform="translate(4.86 35.57) rotate(-66.94)"/><rect class="cls-1" x="30.55" y="11.69" width="0.66" height="0.66" transform="translate(4.71 34.73) rotate(-66.94)"/><rect class="cls-1" x="32.3" y="11.59" width="0.63" height="0.63" transform="matrix(0.39, -0.92, 0.92, 0.39, 5.87, 36.25)"/><rect class="cls-1" x="31.58" y="11.27" width="0.63" height="0.63" transform="matrix(0.39, -0.92, 0.92, 0.39, 5.73, 35.4)"/><rect class="cls-1" x="30.87" y="10.97" width="0.63" height="0.63" transform="matrix(0.39, -0.92, 0.92, 0.39, 5.57, 34.56)"/><rect class="cls-1" x="32.61" y="10.87" width="0.6" height="0.6" transform="translate(6.73 36.08) rotate(-66.94)"/><rect class="cls-1" x="31.91" y="10.57" width="0.6" height="0.6" transform="translate(6.58 35.25) rotate(-66.95)"/><rect class="cls-1" x="31.19" y="10.26" width="0.6" height="0.6" transform="translate(6.43 34.41) rotate(-66.95)"/><rect class="cls-1" x="32.94" y="10.17" width="0.57" height="0.57" transform="translate(7.58 35.93) rotate(-66.94)"/><rect class="cls-1" x="32.23" y="9.86" width="0.57" height="0.57" transform="translate(7.42 35.09) rotate(-66.94)"/><rect class="cls-1" x="31.52" y="9.56" width="0.57" height="0.57" transform="translate(7.27 34.25) rotate(-66.94)"/><rect class="cls-1" x="33.27" y="9.47" width="0.54" height="0.54" transform="translate(8.42 35.78) rotate(-66.94)"/><rect class="cls-1" x="32.55" y="9.16" width="0.54" height="0.54" transform="translate(8.27 34.94) rotate(-66.94)"/><rect class="cls-1" x="31.84" y="8.86" width="0.54" height="0.54" transform="translate(8.12 34.1) rotate(-66.94)"/><rect class="cls-1" x="33.59" y="8.75" width="0.51" height="0.51" transform="translate(9.28 35.62) rotate(-66.94)"/><rect class="cls-1" x="32.88" y="8.46" width="0.51" height="0.51" transform="translate(9.11 34.78) rotate(-66.93)"/><rect class="cls-1" x="32.16" y="8.16" width="0.51" height="0.51" transform="translate(8.96 33.94) rotate(-66.93)"/><path class="cls-3" d="M77.12,7.8a5.94,5.94,0,0,0-3.94-1.2l-5.74,0V16h5.74a5.89,5.89,0,0,0,3.94-1.2,4.37,4.37,0,0,0,1.42-3.52A4.39,4.39,0,0,0,77.12,7.8Zm-.94,3.52a2.66,2.66,0,0,1-.78,2.11A3.61,3.61,0,0,1,73,14.1H69.77V8.54H73a3.63,3.63,0,0,1,2.36.67,2.6,2.6,0,0,1,.78,2.11Z" transform="translate(-3.02 -1)"/><rect class="cls-3" x="76.33" y="8.17" width="2.13" height="6.87"/><rect class="cls-3" x="76.33" y="5.61" width="2.13" height="1.7"/><path class="cls-3" d="M87.79,9.17H82.61V16h2.16V10.93H87.3c.44,0,.63.19.63.63v1.28h2.16V11.33a2.21,2.21,0,0,0-.56-1.56A2.33,2.33,0,0,0,87.79,9.17Z" transform="translate(-3.02 -1)"/><path class="cls-3" d="M114.66,14.29c-.44,0-.63-.2-.63-.64V10.93h2.74V9.17H114v-2H111.9v2H110v1.76h1.91v2.94a2.12,2.12,0,0,0,.56,1.56,2.28,2.28,0,0,0,1.74.6h2.92V14.28Z" transform="translate(-3.02 -1)"/><polygon class="cls-3" points="103.84 8.17 102.36 10.73 100.24 10.73 100.24 5.62 98.11 5.62 98.11 15.04 100.24 15.04 100.24 12.48 102.33 12.48 103.84 15.04 106.25 15.04 104.23 11.64 106.25 8.17 103.84 8.17"/><path class="cls-3" d="M94.36,14.28a1.26,1.26,0,0,1-1.16-.8h5.56V11.74H93.2a1.24,1.24,0,0,1,1.16-.8h4.4V9.18H94.53a4,4,0,0,0-2.71.86,3.28,3.28,0,0,0-1,2.57,3.31,3.31,0,0,0,1,2.57,4,4,0,0,0,2.71.86h5.22V14.28Z" transform="translate(-3.02 -1)"/></svg>