<svg xmlns="http://www.w3.org/2000/svg" id="Layer_1" version="1.1" viewBox="0 0 115 20"><defs><style>.st2{fill:#05478a}.st3{fill:#07488b}.st4{fill:#08498c}</style></defs><path d="M98.61 11.59c0 .17-.02.31-.03.48h-6.24c-.04.3.1.5.24.7.37.54.92.81 1.55.9.97.14 1.84-.07 2.6-.78.44.48.87.94 1.33 1.43-.39.47-.85.8-1.39 1.01-.87.34-1.76.43-2.69.34-1.04-.1-1.98-.42-2.78-1.09-.89-.75-1.33-1.72-1.4-2.86-.04-.75.04-1.47.36-2.16.59-1.29 1.6-2.06 2.96-2.37.91-.21 1.82-.18 2.72.11 1.75.58 2.77 2.14 2.78 3.81v.49m-3.44-.97h1.1c-.15-1.14-1.1-1.77-2.09-1.71-1.1.06-1.93.86-1.87 1.71h2.87Z" class="st2"/><path d="M81.65 13.76c-.85 1.17-1.97 1.76-3.38 1.9-1.16.11-2.24-.07-3.22-.69-1.24-.78-1.88-1.91-1.92-3.38-.02-.69.04-1.36.33-2 .5-1.11 1.34-1.87 2.48-2.25 1.4-.46 2.81-.44 4.14.26 1.34.71 2.09 1.83 2.22 3.37.08 1-.11 1.92-.66 2.8m-5.87-1.47c.46 1.4 2.24 1.75 3.24.94.79-.64.93-1.51.77-2.45-.07-.44-.26-.85-.6-1.15-1.26-1.12-3.12-.5-3.49 1.03-.13.53-.12 1.06.07 1.64Z" style="fill:#04478a"/><path d="M8.43 6.57c.26.95.19 1.83-.43 2.59-.25.3-.58.52-.89.79.12.05.27.11.41.17 1.04.42 1.54 1.22 1.62 2.31.04.47-.04.93-.21 1.37-.27.66-.78 1.08-1.41 1.36-.67.3-1.39.41-2.12.42-1.78.02-3.56 0-5.37 0V4.69c.1 0 .2-.02.3-.02h4.81c.71 0 1.39.14 2.02.47.6.3 1.04.75 1.27 1.43m-4.01 3.97H1.2v4.01c.08.01.13.02.18.02 1.29 0 2.58.02 3.86-.01.48-.01.99-.09 1.44-.25 1.12-.38 1.4-1.28 1.19-2.29-.15-.76-.73-1.12-1.43-1.32-.64-.19-1.3-.16-2.04-.16m.5-4.88H1.2v3.85c.05.02.09.04.13.04 1.29 0 2.58 0 3.86-.03.47-.01.94-.15 1.36-.41 1.11-.66 1.1-2.5-.11-3.1-.46-.23-.95-.34-1.54-.35ZM107.3 14.62c-.71.64-1.52.94-2.43 1.04-1.06.12-2.08-.03-3.02-.53-1.44-.78-2.21-1.99-2.25-3.65-.03-1.08.27-2.05.98-2.88a4.26 4.26 0 0 1 2.36-1.4c1.16-.25 2.31-.23 3.42.27.68.31 1.41.94 1.68 1.75-.62.33-1.24.67-1.88 1.01-.09-.11-.17-.2-.24-.3-.46-.67-1.31-1.05-2.29-.77-.76.21-1.38.82-1.51 1.81-.07.53-.01 1.03.2 1.52.63 1.41 2.73 1.63 3.63.3.06-.09.12-.17.19-.27.64.35 1.26.69 1.89 1.03-.16.43-.41.76-.74 1.08ZM86.67 6.25v1.07h2.04v1.95h-2c-.01.13-.03.24-.03.34 0 .99.01 1.98 0 2.96-.02.95.7 1.33 1.48 1.09.17-.05.33-.13.54-.22.22.55.43 1.11.66 1.69-.06.05-.12.13-.2.16-1.14.55-2.3.56-3.45.08-.83-.34-1.26-1.02-1.42-1.88-.06-.32-.08-.65-.08-.98V9.29h-1.24V7.33h1.23V5.35h2.48v.89ZM111.69 5.33h.58v1.99h2.07v1.95h-2.03c-.01.15-.03.25-.03.36v3.04c.01.79.58 1.18 1.33 1.02.22-.05.44-.15.7-.25.21.56.43 1.13.66 1.74-.25.11-.47.23-.69.3-.93.31-1.86.29-2.77-.03-.92-.33-1.45-1-1.61-1.96-.05-.31-.08-.62-.08-.94-.01-.95 0-1.89 0-2.84v-.44h-1.24V7.33h1.22V5.31h1.89ZM62.92 9.59c.06-.19.13-.34.16-.5.15-1.06-.29-2.07-1.75-2.24-.5-.06-1.01-.03-1.52-.03h-.47V4.74s.04-.05.06-.05c.94 0 1.89-.09 2.83.08 1.19.22 2.21.72 2.91 1.75.4.59.6 1.25.61 1.97.01.66-.03 1.31-.31 1.93-.55 1.18-1.51 1.84-2.73 2.17-.52.14-1.04.21-1.58.2-.59-.01-1.17 0-1.78 0v-2.11c.1-.01.21-.03.31-.03h1.32c.4 0 .79-.08 1.15-.26.34-.17.62-.4.8-.78Z" class="st2"/><path d="M33.7 9.92c-.2-1.01-.87-1.51-1.81-1.6-1.09-.11-2.09.15-2.98.8l-.13.1a.2.2 0 0 0-.08.02c-.16-.26-.33-.54-.5-.82.56-.54 1.25-.81 1.97-.98a5.61 5.61 0 0 1 2.48-.04c1.36.29 2.14 1.23 2.19 2.56.06 1.85.02 3.7.02 5.58h-1.07v-1.13c-.22.22-.35.39-.52.52-.73.6-1.6.75-2.51.71-.56-.02-1.11-.14-1.61-.42-.85-.47-1.26-1.28-1.15-2.31.09-.85.7-1.55 1.57-1.81.42-.12.85-.19 1.3-.19h2.43c.13 0 .27-.01.46-.02-.02-.33-.04-.64-.07-.98m-2.73 4.81c.57.05 1.13-.03 1.62-.32 1.11-.67 1.33-1.33 1.14-2.6-.05 0-.1-.02-.15-.02-.9 0-1.81-.01-2.71 0-.28 0-.57.08-.84.17-.57.18-.87.6-.9 1.19-.02.5.17.93.6 1.22.35.24.74.33 1.23.36Z" style="fill:#06488b"/><path d="M49.33 8.59c-.4.21-.77.41-1.18.63-.15-.25-.31-.53-.48-.81.28-.3.61-.47.94-.62 1.23-.56 2.51-.68 3.8-.31 1.12.32 1.72 1.12 1.88 2.25.05.35.06.71.07 1.06v4.74h-1.12v-1.09c-.24.22-.43.41-.64.57-.72.52-1.55.65-2.42.61-.69-.04-1.35-.19-1.91-.64-.73-.59-.94-1.36-.78-2.24.15-.84.69-1.39 1.5-1.63.43-.13.88-.18 1.33-.2.81-.03 1.62 0 2.43 0 .13 0 .27-.01.42-.02.08-.66.02-1.27-.36-1.82-.35-.5-.87-.68-1.44-.76-.69-.09-1.36.02-2.04.27m2.64 5.86c1.22-.73 1.37-1.37 1.18-2.66h-2.54c-.29 0-.58.03-.85.09-.47.1-.88.31-1.07.8-.3.77.05 1.6.83 1.88.8.29 1.61.26 2.45-.11ZM17.19 8.51c.36.56.5 1.16.51 1.78.02 1.7 0 3.4 0 5.1 0 .04 0 .08-.02.15h-1.12V14.5c-.09.08-.14.1-.17.14-.76.85-1.76 1.06-2.84 1.01-.75-.03-1.46-.2-2.04-.73-.45-.41-.69-.91-.71-1.51-.02-.47.04-.92.3-1.34.37-.61.95-.89 1.61-1.03.33-.07.68-.09 1.02-.1.78-.01 1.56 0 2.35 0h.4c.28-1.49-.44-2.44-1.74-2.6-1.06-.13-2.04.12-2.92.72-.08.05-.15.11-.23.17 0 0-.03 0-.09.02-.15-.26-.32-.53-.49-.83.59-.49 1.23-.79 1.95-.95.94-.21 1.87-.25 2.8.03.58.17 1.06.5 1.43 1.02m-3.88 3.32c-.22.06-.46.1-.66.2-.46.21-.7.6-.71 1.11-.02.75.42 1.3 1.2 1.49.55.14 1.11.16 1.66 0 1.38-.41 2.02-1.35 1.69-2.84h-2.95c-.05 0-.1.03-.23.05Z" class="st3"/><path d="M69.62 11.7v3.84h-2.45V7.19h2.36v.87l.07.05c.76-.78 1.69-1.08 2.77-1.04v2.24c-.15 0-.28-.02-.41-.02-1.01-.02-1.81.37-2.12 1.22-.13.36-.15.77-.21 1.2Z" class="st2"/><path d="M57.9 19.33V20h-.96V0h.87l.05.05s.02.02.02.03c0 6.4.01 12.81.02 19.25Z" style="fill:#a86d06"/><path d="M22.96 13.69c.08.18.15.32.25.55 1.07-2.33 2.05-4.62 3.08-6.89h1.14c-1.22 2.74-2.43 5.46-3.64 8.2h-1.2c-1.2-2.71-2.41-5.44-3.63-8.2h1.21c.92 2.09 1.84 4.2 2.79 6.34Z" style="fill:#08498b"/><path d="M38.82 15.57h-.98V7.36h1.1v1.32c.4-.45.79-.85 1.33-1.08.54-.23 1.09-.33 1.7-.29v1.07c-.29.02-.58.03-.86.07-1.09.15-1.91.99-2.07 2.23-.06.46-.06.93-.06 1.39v3.17c0 .11.1.29-.16.33Z" class="st4"/><path d="M43.98 13V7.35h1.07v8.2h-1.07V13Z" style="fill:#034589"/><path d="M44.2 5.54c-.61-.38-.67-1.06-.14-1.41.29-.19.73-.18 1 .03s.37.57.25.92c-.12.34-.4.52-.8.51-.09 0-.19-.03-.31-.06Z" class="st4"/></svg>