<svg id="Ebene_1" data-name="Ebene 1" xmlns="http://www.w3.org/2000/svg" xmlns:xlink="http://www.w3.org/1999/xlink" viewBox="0 0 206.37 40"><defs><style>.cls-1{fill:none;}.cls-2{clip-path:url(#clip-path);}.cls-3{fill:#004b96;}.cls-4,.cls-5{fill:#fff;}.cls-5{fill-rule:evenodd;}</style><clipPath id="clip-path"><rect class="cls-1" x="1" y="1" width="204.37" height="38"/></clipPath></defs><g id="Logo_quer_RGB" data-name="Logo quer RGB"><g class="cls-2"><g class="cls-2"><path class="cls-3" d="M56.09,26.47a.48.48,0,0,1-.19.21,15.41,15.41,0,0,1-5.58,1c-5.56,0-10.17-3.82-10.17-9.6,0-6.24,4.73-9.46,10.1-9.46a15.49,15.49,0,0,1,5.59,1,.6.6,0,0,1,.2.22c0,1.26.21,3.09.3,4.45a3.57,3.57,0,0,1-.55.11c-.33,0-.46,0-.54-.32a4.48,4.48,0,0,0-4.62-3.83c-3.93,0-5.57,3.17-5.57,7.24,0,5.09,2.54,8.5,6.18,8.5,2.4,0,3.54-1.46,4.27-3.83.08-.26.23-.32.56-.3a3.45,3.45,0,0,1,.54.11c-.18,1.36-.39,3.19-.51,4.45"/><path class="cls-3" d="M68.11,27.7a9.33,9.33,0,0,1-9.63-9c0-.18,0-.36,0-.54a9.14,9.14,0,0,1,8.72-9.53,8.07,8.07,0,0,1,.85,0,9.36,9.36,0,0,1,9.64,9.08v.51c0,5.62-4,9.47-9.57,9.47m-.3-17.49c-3.35,0-4.46,3.89-4.46,7.52,0,3.84,1.46,8.47,5,8.47,3.34,0,4.42-3.86,4.42-7.49,0-3.83-1.44-8.5-5-8.5"/><path class="cls-3" d="M97.88,10.11l-.86.17c-.86.16-1,1-1,4.37v7c0,2.31.13,4.53.25,5.7a19.56,19.56,0,0,1-2.65.08.51.51,0,0,1-.48-.3c-.48-.75-1-1.48-1.54-2.18L83.15,14.48h0l.1,6.19c0,4.24.28,5.2,1.5,5.41l1.09.18c.25,0,.31.22.31.54a2.74,2.74,0,0,1-.08.5c-1.27,0-2.31-.07-3.54-.07s-2.25,0-3.52.07a2.74,2.74,0,0,1-.08-.5c0-.32.08-.48.33-.54l.89-.16c.86-.16,1-1,1-4.37v-9A3,3,0,0,0,80.74,11a1.71,1.71,0,0,0-1.28-.68l-.68-.11c-.25,0-.33-.22-.33-.54a3.6,3.6,0,0,1,.08-.56c1.21,0,2.19.08,3.19.08,1.21,0,2.19,0,3.28-.08a1.13,1.13,0,0,1,.27.13,27.43,27.43,0,0,0,2.28,3.28l6.35,8h0V15.74c-.06-4.26-.27-5.22-1.48-5.46l-1.09-.19c-.25,0-.33-.22-.33-.54a2.17,2.17,0,0,1,.08-.5c1.26,0,2.32.08,3.57.08s2.19,0,3.5-.08a2.87,2.87,0,0,1,.07.5c0,.32-.07.49-.32.54"/><path class="cls-3" d="M115.17,26.47a.51.51,0,0,1-.2.21,15.35,15.35,0,0,1-5.57,1c-5.56,0-10.17-3.82-10.17-9.6,0-6.24,4.73-9.46,10.1-9.46a15.45,15.45,0,0,1,5.59,1,.53.53,0,0,1,.2.22c0,1.26.21,3.09.31,4.45a3.69,3.69,0,0,1-.56.11c-.33,0-.46,0-.54-.32a4.47,4.47,0,0,0-4.62-3.83c-3.92,0-5.57,3.17-5.57,7.24,0,5.09,2.53,8.5,6.17,8.5,2.41,0,3.54-1.46,4.27-3.83.08-.26.23-.32.56-.3a3.45,3.45,0,0,1,.54.11c-.18,1.36-.39,3.19-.51,4.45"/><path class="cls-3" d="M127.2,27.7a9.34,9.34,0,0,1-9.64-9,4.86,4.86,0,0,1,0-.54,9.12,9.12,0,0,1,8.71-9.53,8,8,0,0,1,.85,0,9.36,9.36,0,0,1,9.64,9.08v.51c0,5.62-3.95,9.47-9.56,9.47m-.31-17.49c-3.34,0-4.46,3.89-4.46,7.52,0,3.84,1.47,8.47,5,8.47,3.34,0,4.42-3.86,4.42-7.49,0-3.83-1.44-8.5-5-8.5"/><path class="cls-3" d="M156.46,27.3c-.42,0-2.18-.11-3-.11s-2.33,0-3.22.08c-1.51-1.73-3.13-5-4.63-8a1.37,1.37,0,0,0-.17-.17h-.79a.34.34,0,0,0-.13.22v4.37c0,1.84,0,2.37.63,2.48l.91.16c.25,0,.3.22.3.53a2.17,2.17,0,0,1,0,.51c-1.29,0-2.8-.08-4-.08s-2.83,0-4.12.08a4.34,4.34,0,0,1,0-.51c0-.31,0-.48.31-.53l.9-.16c.64-.11.66-.64.66-2.48V12.75c0-1.84,0-2.38-.66-2.49l-.9-.16c-.25,0-.31-.22-.31-.53a4.34,4.34,0,0,1,0-.51c1.29,0,2.25.08,3.5.08,1.71,0,4.66-.18,5.76-.18,3.72,0,6,1.71,6,4.82a4.63,4.63,0,0,1-3.37,4.3v.22a54.34,54.34,0,0,0,3.06,5c1.52,2.24,2,2.75,2.73,2.88l.41.07c.25,0,.3.22.3.54a2.74,2.74,0,0,1-.07.5M145.83,10.41a2.62,2.62,0,0,0-1,.18,6.24,6.24,0,0,0-.28,2.61v4.38a.27.27,0,0,0,.13.15h1.17c1.62,0,2.91-1.09,2.91-3.49,0-2.87-1.45-3.81-2.89-3.81"/><path class="cls-3" d="M174,24.48a9.06,9.06,0,0,1-6.84,2.75h-6.23c-1.29,0-2.89,0-3.6.07a4.17,4.17,0,0,1,0-.5c0-.32,0-.48.31-.54l.91-.16c.63-.11.65-.64.65-2.48V12.69c0-1.83,0-2.37-.65-2.48l-.91-.16c-.25,0-.31-.19-.31-.51a4.68,4.68,0,0,1,0-.53c.61,0,2.26.11,3.37.11,2,0,3.75-.32,6-.32A9.83,9.83,0,0,1,174,11.49a9.17,9.17,0,0,1,2.41,6.56,9.35,9.35,0,0,1-2.46,6.44m-8-14a6.17,6.17,0,0,0-2.05.29c-.13.24-.21.48-.21,2.26v9.58c0,2.39.3,2.93,1.27,2.93h1.56c2.33,0,5-1.78,5-7,0-5.59-2.48-8-5.54-8"/><path class="cls-3" d="M186.06,27.3c-1.29,0-2.81-.07-4.06-.07s-2.83,0-4.12.07a4.17,4.17,0,0,1,0-.5c0-.32,0-.48.31-.54l.91-.16c.63-.11.65-.64.65-2.48V12.75c0-1.84,0-2.38-.65-2.49l-.91-.15c-.25,0-.31-.22-.31-.53a4.34,4.34,0,0,1,0-.51c1.29,0,2.81.08,4.06.08s2.83,0,4.12-.08a4.34,4.34,0,0,1,0,.51c0,.31,0,.48-.31.53l-.9.15c-.64.11-.64.65-.64,2.49V23.62c0,1.84,0,2.37.64,2.48l.9.16c.25,0,.31.22.31.54a4.17,4.17,0,0,1,0,.5"/><path class="cls-3" d="M205.29,27.3c-1.24,0-3-.07-4.15-.07s-3.06,0-4.3.07a2.09,2.09,0,0,1-.08-.5c0-.32,0-.48.3-.54l.77-.13c.54-.11.76-.26.76-.63a13.7,13.7,0,0,0-.68-2.43l-.58-1.73a.3.3,0,0,0-.21-.17h-5c-.1,0-.13.08-.17.17l-.54,1.73c-.56,1.84-.36,2.91.6,3.06l.81.13c.25,0,.31.22.31.54a2.74,2.74,0,0,1-.08.5c-1.23,0-1.9-.07-3.06-.07s-1.67,0-2.91.07a2.74,2.74,0,0,1-.07-.5c0-.32,0-.48.3-.54l.36-.07c.66-.17,1.1-.83,1.8-3.15l3.49-10.87a3.75,3.75,0,0,0,.2-1.1,1.22,1.22,0,0,0,0-.27c.23-.56.76-.54,2.19-1.31s1.44-1.09,1.94-1.09a.62.62,0,0,1,.46.21,34.14,34.14,0,0,0,1.34,4.08L202.88,23c.86,2.37,1.09,3,1.79,3.11l.41.11c.25,0,.32.22.32.54a2.74,2.74,0,0,1-.07.5M194.51,12.78h-.07l-1.94,6.56a.33.33,0,0,0,.15.18h3.92a.4.4,0,0,0,.16-.18Z"/><path class="cls-3" d="M1,1.69V20.57c.16,8.59,6.83,14.75,16.34,17.33,9.07-2.66,16.06-8.75,16.34-17.33V1.69S25.47,1,17.34,1,1,1.69,1,1.69"/><polygon class="cls-4" points="17.82 22.19 24 28.02 28.26 23.71 22.25 18.05 17.86 22.18 17.82 22.19"/><path class="cls-5" d="M10.73,13.67l-1.1-2.78a1.14,1.14,0,0,1-.06-.25c0-.31.06-.54.31-.54.43,0,.54.43.62.52a8.61,8.61,0,0,1,1.32,3.43,2.75,2.75,0,0,1-.32,1.66.6.6,0,0,0-.07.32c0,.17.1.16.24.34l.76.74,4.45-4.22L13.15,9.35c-1.33-1.28-1.43-1.61-2.86-2a3.82,3.82,0,0,0-2.84.8A10.87,10.87,0,0,1,5.37,9.74c-.15.06-.28.12-.32.3a.62.62,0,0,0,.08.4c.08.18.18.22.3.36L10,15.17l.74-1a.47.47,0,0,0,0-.46"/><path class="cls-5" d="M24,13.67,25,10.89a2.33,2.33,0,0,0,.07-.25c0-.31-.07-.54-.32-.54-.42,0-.53.43-.61.52a8.61,8.61,0,0,0-1.32,3.43,2.82,2.82,0,0,0,.31,1.66.61.61,0,0,1,.08.32c0,.17-.11.16-.24.34L10.65,28l-4-4.44L21.52,9.38c1.34-1.31,1.42-1.57,2.86-1.93a3.76,3.76,0,0,1,2.84.73,12.45,12.45,0,0,0,2.12,1.56c.15.07.28.12.31.3a.56.56,0,0,1-.07.4c-.08.18-.18.22-.3.36l-4.56,4.37L24,14.11a.45.45,0,0,1,0-.45"/><path class="cls-4" d="M17.33,36.51h-.19C8,34,2.42,28,2.28,20.44V3H2.9c.08,0,7.26-.62,14.33-.62h.16c7.11,0,14.36.62,14.44.62h.62V20.38c-.23,7.39-5.79,13.39-14.87,16.07ZM3.64,4.21V20.38c.14,6.85,5.24,12.31,13.68,14.7C25.7,32.54,30.81,27,31,20.36V4.21c-1.9-.14-7.85-.55-13.69-.55h-.11c-5.81,0-11.69.41-13.59.55"/></g></g></g></svg>