<svg id="Ebene_1" data-name="Ebene 1" xmlns="http://www.w3.org/2000/svg" viewBox="0 0 147.82 40"><defs><style>.cls-1{fill:#0f6;}.cls-2{fill:#009;}.cls-3{fill:#c5281c;}</style></defs><polygon class="cls-1" points="142.56 39 108.59 5.25 142.56 5.25 142.56 39"/><path class="cls-2" d="M6.36,26.14a5.31,5.31,0,0,1-2.77-.71,4.82,4.82,0,0,1-1.9-1.95A5.77,5.77,0,0,1,1,20.62a5.64,5.64,0,0,1,.42-2.15,5.08,5.08,0,0,1,1.17-1.75,5.2,5.2,0,0,1,1.75-1.16,5.78,5.78,0,0,1,2.17-.41,5.45,5.45,0,0,1,2.21.47,4.48,4.48,0,0,1,1.71,1.29L9,18.44a4.18,4.18,0,0,0-1.17-.89,2.94,2.94,0,0,0-1.35-.31,3.08,3.08,0,0,0-1.63.44,3,3,0,0,0-1.15,1.2,3.53,3.53,0,0,0-.43,1.76,3.87,3.87,0,0,0,.41,1.81A2.82,2.82,0,0,0,4.9,23.63,3.79,3.79,0,0,0,6.67,24a3.15,3.15,0,0,0,1.4-.31A3.85,3.85,0,0,0,9.2,23l1.06,1.72a3.66,3.66,0,0,1-1,.74,5.48,5.48,0,0,1-1.37.52A5.33,5.33,0,0,1,6.36,26.14Z"/><path class="cls-2" d="M17,24a3,3,0,0,0,1.63-.43,3.17,3.17,0,0,0,1.13-1.22,4.19,4.19,0,0,0,0-3.53,3.24,3.24,0,0,0-1.13-1.22A3,3,0,0,0,17,17.18a3,3,0,0,0-2.77,1.66,3.62,3.62,0,0,0-.4,1.76,3.52,3.52,0,0,0,.4,1.76,3,3,0,0,0,1.12,1.21A2.82,2.82,0,0,0,17,24Zm0,2.1a5.71,5.71,0,0,1-2.17-.42,5.21,5.21,0,0,1-1.73-1.14,5.28,5.28,0,0,1-1.13-1.74,5.82,5.82,0,0,1-.39-2.2,5.92,5.92,0,0,1,.39-2.2,5.5,5.5,0,0,1,1.13-1.74,4.88,4.88,0,0,1,1.73-1.14A5.78,5.78,0,0,1,17,15.15a5.6,5.6,0,0,1,2.15.41,5.12,5.12,0,0,1,1.73,1.16A5.43,5.43,0,0,1,22,18.47a5.66,5.66,0,0,1,.39,2.17,5.89,5.89,0,0,1-.39,2.2,5.28,5.28,0,0,1-1.13,1.74,5,5,0,0,1-1.73,1.17A6.22,6.22,0,0,1,17,26.14Z"/><path class="cls-2" d="M27.94,26.14a5.71,5.71,0,0,1-2.55-.54A5,5,0,0,1,23.57,24L25,22.47a4.68,4.68,0,0,0,1.48,1.41,3.49,3.49,0,0,0,1.63.37,2.2,2.2,0,0,0,1.21-.31.93.93,0,0,0,.5-.83,1.07,1.07,0,0,0-.62-1,5.94,5.94,0,0,0-1.63-.56A5.5,5.5,0,0,1,25,20.41a2.79,2.79,0,0,1-.83-2.13,2.71,2.71,0,0,1,.54-1.64,3.63,3.63,0,0,1,1.42-1.1,4.58,4.58,0,0,1,2-.39,5.33,5.33,0,0,1,2.36.47A3.73,3.73,0,0,1,31.92,17L30.5,18.38A2.86,2.86,0,0,0,28.08,17a2.26,2.26,0,0,0-1.23.31,1,1,0,0,0-.46.86,1,1,0,0,0,.54.89,5.49,5.49,0,0,0,1.46.5,6.24,6.24,0,0,1,2.68,1.12,2.46,2.46,0,0,1,1,2.05,3,3,0,0,1-.53,1.82,3.27,3.27,0,0,1-1.41,1.17A6.17,6.17,0,0,1,27.94,26.14Z"/><path class="cls-2" d="M34.11,26V15.33h2l3.25,5.27,3.3-5.27h1.94V26H42.5V22.24c0-.62,0-1.2,0-1.72s0-1,.08-1.54l-2.73,4.21h-1L36.18,19c0,.48.08,1,.1,1.5s0,1.1,0,1.76V26H34.11Z"/><path class="cls-2" d="M52.18,24a3,3,0,0,0,2.75-1.65,4.09,4.09,0,0,0,0-3.53,3.14,3.14,0,0,0-1.12-1.22,3,3,0,0,0-1.63-.46,3.1,3.1,0,0,0-1.65.43,3.2,3.2,0,0,0-1.13,1.23A3.74,3.74,0,0,0,49,20.6a3.63,3.63,0,0,0,.39,1.76,3.07,3.07,0,0,0,1.13,1.21A2.8,2.8,0,0,0,52.18,24Zm0,2.1A5.71,5.71,0,0,1,50,25.72a5.21,5.21,0,0,1-1.73-1.14,5.28,5.28,0,0,1-1.13-1.74,5.82,5.82,0,0,1-.4-2.2,5.93,5.93,0,0,1,.4-2.2,5.5,5.5,0,0,1,1.13-1.74A4.88,4.88,0,0,1,50,15.56a5.78,5.78,0,0,1,2.17-.41,5.6,5.6,0,0,1,2.15.41,5.12,5.12,0,0,1,1.73,1.16,5.43,5.43,0,0,1,1.13,1.75,5.66,5.66,0,0,1,.39,2.17,5.89,5.89,0,0,1-.39,2.2,5.28,5.28,0,0,1-1.13,1.74,5,5,0,0,1-1.73,1.17A6.22,6.22,0,0,1,52.18,26.14Z"/><path class="cls-2" d="M63.15,26.14a5.7,5.7,0,0,1-2.54-.54A4.92,4.92,0,0,1,58.79,24l1.4-1.57a4.68,4.68,0,0,0,1.48,1.41,3.46,3.46,0,0,0,1.63.37,2.2,2.2,0,0,0,1.21-.31,1,1,0,0,0,.5-.83,1.06,1.06,0,0,0-.63-1,5.74,5.74,0,0,0-1.62-.56,5.45,5.45,0,0,1-2.57-1.17,2.79,2.79,0,0,1-.83-2.13,2.65,2.65,0,0,1,.54-1.64,3.49,3.49,0,0,1,1.42-1.1,4.58,4.58,0,0,1,2-.39,5.33,5.33,0,0,1,2.36.47A3.73,3.73,0,0,1,67.14,17l-1.42,1.39A2.88,2.88,0,0,0,63.3,17a2.26,2.26,0,0,0-1.23.31,1,1,0,0,0-.46.86,1,1,0,0,0,.54.89,5.49,5.49,0,0,0,1.46.5,6.14,6.14,0,0,1,2.67,1.12,2.43,2.43,0,0,1,1,2.05,3,3,0,0,1-.52,1.82,3.24,3.24,0,0,1-1.42,1.17A6.08,6.08,0,0,1,63.15,26.14Z"/><path class="cls-2" d="M78.26,17.32H76.17V24h2.09a2.85,2.85,0,0,0,2.23-.89,3.5,3.5,0,0,0,.82-2.43,3.49,3.49,0,0,0-.82-2.42A2.77,2.77,0,0,0,78.26,17.32ZM74,26V15.33h4.36a5.29,5.29,0,0,1,2.74.69,4.64,4.64,0,0,1,1.81,1.89,5.64,5.64,0,0,1,.65,2.77,5.65,5.65,0,0,1-.65,2.78,4.93,4.93,0,0,1-1.81,1.87,5.29,5.29,0,0,1-2.74.69H74Z"/><polygon class="cls-2" points="85.12 25.97 85.12 24.07 86.9 24.07 86.9 17.22 85.12 17.22 85.12 15.31 90.9 15.31 90.9 17.22 89.11 17.22 89.11 24.07 90.9 24.07 90.9 25.97 85.12 25.97"/><path class="cls-2" d="M95.53,20.31H98a1.33,1.33,0,0,0,1-.43,1.52,1.52,0,0,0,.4-1.08A1.44,1.44,0,0,0,99,17.68a1.76,1.76,0,0,0-1.25-.44H95.53ZM93.41,26V15.33h4.71a3.67,3.67,0,0,1,1.78.44,3.38,3.38,0,0,1,1.21,4.79,3.5,3.5,0,0,1-1.47,1.22L102.09,26l-2.57,0-2.19-3.86H95.51V26h-2.1Z"/><polygon class="cls-2" points="104.11 25.97 104.11 15.33 111.27 15.33 111.27 17.28 106.26 17.28 106.26 19.61 110.54 19.61 110.54 21.49 106.28 21.49 106.28 24.02 111.37 24.02 111.37 25.97 104.11 25.97"/><polygon class="cls-2" points="127.25 25.97 127.25 17.32 124.14 17.32 124.14 15.33 132.65 15.33 132.65 17.32 129.46 17.32 129.46 25.97 127.25 25.97"/><polygon class="cls-2" points="120.59 25.97 123.33 25.97 117.75 20.45 123.01 15.33 120.3 15.33 115.9 19.77 115.9 15.33 113.69 15.33 113.69 25.97 115.9 25.97 115.9 22.24 116.31 21.84 120.59 25.97"/><polygon class="cls-3" points="115 1 115 2.1 145.71 2.1 145.71 32.63 146.82 32.63 146.82 2.1 146.82 1.25 146.82 1 115 1"/></svg>