<svg id="Ebene_1" data-name="Ebene 1" xmlns="http://www.w3.org/2000/svg" viewBox="0 0 91.44 40"><defs><style>.cls-1{fill:#003264;}</style></defs><path class="cls-1" d="M12,15.8H10.29v8.46H12a4.23,4.23,0,0,0,0-8.46ZM24.7,21.48h3.55l-1.8-4.7Zm0,0"/><path class="cls-1" d="M20.06,1a19,19,0,1,0,19,19,19,19,0,0,0-19-19ZM12,27.1H7.23V12.9H12a7.1,7.1,0,0,1,0,14.2Zm18.34,0L29.18,24H23.77l-1.2,3.06H19.41l5.73-14.2h2.67l5.68,14.2Zm26.26-9.94H54.29v10h2.35Zm-1.2-4.64A1.45,1.45,0,1,0,56.91,14a1.47,1.47,0,0,0-1.47-1.47ZM61,18.91V17.22h-2.3v10H61V22.84c0-2.08,1-3.39,2.79-3.39a1,1,0,0,1,.6.12V17.16c-.06-.05-.17-.05-.44-.05a2.85,2.85,0,0,0-3,1.8Zm23.91-1.75H82l-3.77,3.77v-8H75.92V27.15h2.34V23.22l.5-.49,3.54,4.42h2.9l-4.64-5.62,4.3-4.37Zm-34.95.93a5.28,5.28,0,0,0-7.37.76,5.23,5.23,0,0,0,.77,7.37,5.16,5.16,0,0,0,6.6,0v.93h2.36V12.91H49.92ZM47,25.46a3.28,3.28,0,1,1,3.27-3.27A3.25,3.25,0,0,1,47,25.46ZM73,23a3.3,3.3,0,0,1-3.43,2.46,3.37,3.37,0,0,1-1.59-.55l6.28-5.4a5.2,5.2,0,1,0,.66,3.71v-.16Zm-6.49-1.09a3.21,3.21,0,0,1,3.49-3,2.85,2.85,0,0,1,1.37.44l-4.69,4a6.17,6.17,0,0,1-.17-1.48Zm21.35-7.42v2.62h2.62v2H87.82V23.6c0,1.1.49,1.59,1.53,1.59a2,2,0,0,0,1.09-.33v2.08a4,4,0,0,1-1.81.38c-2,0-3.16-1.2-3.16-3.33v-9.5Zm0,0"/></svg>