<svg id="Layer_1" xmlns="http://www.w3.org/2000/svg" viewBox="0 0 221.1 113.39"><defs><style>.cls-1{fill:#008746;}.cls-2{fill:#fff;}</style></defs><rect class="cls-1" x="2.83" y="2.83" width="215.43" height="107.72"/><path class="cls-2" d="M38.74,74.64V38.74h16.02c3.8,0,9.93,0,13.43,3.8,3.5,3.8,3.71,10.32,3.71,13.93,0,15.35-7.98,18.1-18.4,18.05l-14.76,.11Zm10.49-6.5h3.48c1.23,.02,2.45-.1,3.65-.37,3.98-.92,4.93-3.58,5.36-6.33,.23-1.64,.34-3.3,.33-4.95,.04-1.85-.09-3.7-.38-5.52-.18-1.54-.79-2.99-1.77-4.18-1.86-2.03-4.78-1.98-6.84-1.98h-3.8v23.33h-.03Z"/><polygon class="cls-2" points="104.08 74.64 79.04 74.64 79.04 38.74 102.84 38.74 102.84 44.84 89.07 44.84 89.07 52.49 102.39 52.49 102.39 58.45 89.06 58.45 89.06 67.56 104.08 67.56 104.08 74.64 104.08 74.64"/><path class="cls-2" d="M133.67,74.64h-15.01l-10.13-35.9h10.84l5.59,22.67c.66,2.53,.81,3.31,1.37,6.46,.68-3.34,.91-3.93,1.52-6.19l6.14-22.94h9.82l-10.07,35.9h-.06Z"/><polygon class="cls-2" points="170.05 51.87 182.36 74.64 171.97 74.64 163.84 59.39 159.47 64.75 159.47 74.64 149.12 74.64 149.12 38.74 159.47 38.74 159.47 53.64 170.67 38.74 180.83 38.74 170.05 51.87 170.05 51.87"/></svg>