<svg id="Ebene_1" data-name="Ebene 1" xmlns="http://www.w3.org/2000/svg" viewBox="0 0 215.9 40"><defs><style>.cls-1{fill:#da271c;}.cls-1,.cls-2{fill-rule:evenodd;}.cls-2{fill:#747171;}</style></defs><path class="cls-1" d="M1,20C1,9.53,16.94,1,36.45,1c11.93,0,22.49,3.16,28.9,8,0,.1-30.45,0-30.45,0l-.1,3.16s33.9,0,33.9-.09a12.36,12.36,0,0,1,3,6.51h-37s0,20.41.09,20.41C16,38.48,1,30.14,1,20"/><path class="cls-2" d="M38.29,21.51V39c17.82-.52,32.11-8,33.57-17.44H58.19a8.87,8.87,0,0,1-6.51,6.69c0-.09-.09-6.69-.09-6.69H38.29"/><path class="cls-1" d="M79.64,4.77c0-.28,0-.71.19-.89a2.74,2.74,0,0,1,1.22-.19,4,4,0,0,1,2.17.42,2,2,0,0,1,1,1.32c.28.28.42.9.85.9s.42-.29.42-.62V3.26c0-.7-.09-.8-.7-.8-1.37,0-2.88.1-4.25.1-2,0-4-.1-6-.1-.33,0-.52.1-.52.52s.42.52.71.52c1.36.28,1.32.89,1.32,2.45V15c0,1.61.09,2.12-1.37,2.36-.28.09-.61.19-.61.61a.46.46,0,0,0,.52.52c1,0,2.16-.09,3.2-.09s2.17.09,3.4.09c.28,0,.51-.09.51-.52s-.42-.52-.7-.61c-1.37-.19-1.32-.8-1.32-2.36V11.75c0-.71-.1-1,.61-1l.94-.09c2.36,0,1.56,2.45,2.6,2.45.42,0,.51-.42.51-.71a17.43,17.43,0,0,1-.09-2.12A18.32,18.32,0,0,1,84.35,8c0-.28-.09-.61-.42-.61s-.61.52-.71.8c-.19.62-.42,1.23-1,1.32a11.11,11.11,0,0,1-1.84.1c-.8,0-.71-.43-.71-1.23V4.77"/><path class="cls-1" d="M89.68,6.61,91.14,11a2.31,2.31,0,0,1,.19.61c0,.28-.52.19-.7.19H88.74c-.19,0-.61.09-.61-.29a1.88,1.88,0,0,1,.19-.7l1.36-4.2m-2.35,3.72-1.14,3.45c-.28.7-.7,2-.94,2.64s-.52.7-1.23.8c-.23.09-.61.09-.61.61s.33.52.71.52c.71,0,1.37-.09,2.07-.09s1.37.09,2.08.09c.28,0,.71-.09.71-.52,0-1.22-2.17-.09-2.17-1.93a11.05,11.05,0,0,1,.42-2.22c.28-.8.28-.8,1-.8h2.87c.81,0,.71,0,1,.8l.7,2.12a2.43,2.43,0,0,1,.24.9c0,.9-1.56.19-1.56,1.13,0,.43.43.52.71.52,1,0,2.08-.09,3.21-.09.85,0,1.74.09,2.68.09.29,0,.71,0,.71-.52s-.33-.52-.8-.61-.61-.1-.85-.61a6.06,6.06,0,0,1-.52-1.23L92.13,3c-.28-.71-.28-1-.94-1-.85,0-.94.52-1.22,1.32Z"/><path class="cls-1" d="M105.34,9.34c-.81,0-.81,0-.81-.89V6c0-1.75-.09-2.22,1.37-2.55.28,0,.61-.09.61-.52a.47.47,0,0,0-.51-.52c-1,0-2.08.1-3.12.1s-2.26-.1-3.39-.1c-.33,0-.52.1-.52.52s.42.52.71.52C101,3.73,101,4.35,101,6v8.91c0,1.6,0,2.12-1.37,2.36-.28.09-.61.18-.61.61s.19.52.52.52c1,0,2.07-.1,3.11-.1s2.26.1,3.39.1c.29,0,.52-.1.52-.52s-.42-.52-.71-.61c-1.36-.19-1.32-.81-1.32-2.36V11.37c0-1-.09-.89.85-.89h3.92c.61,0,.61-.1.7.61V15c0,1.6,0,2.12-1.36,2.35-.29.1-.62.19-.62.62s.19.51.52.51c1,0,2.08-.09,3.11-.09s2.27.09,3.4.09c.28,0,.52-.09.52-.51s-.43-.52-.71-.62c-1.37-.19-1.32-.8-1.32-2.35V6c0-1.75-.1-2.22,1.37-2.55.28,0,.61-.09.61-.52a.47.47,0,0,0-.52-.52c-1,0-2.07.1-3.11.1s-2.26-.1-3.4-.1c-.33,0-.51.1-.51.52s.42.52.7.52c1.37.28,1.32.9,1.32,2.55V8.45c0,.89,0,.89-.8.89h-3.86"/><path class="cls-1" d="M121.65,5.2V4c.09-.28.7-.52,1-.52C124.15,3.45,125,5,125,6.61a3.25,3.25,0,0,1-1,2.55,2.55,2.55,0,0,1-1.88.61c-.52,0-.43-.52-.43-1.13V5.2m5.71,7.07c-.52-1.13-1-2-2.26-2.22,1.84-.19,3.72-1.22,3.72-3.68a4.15,4.15,0,0,0-1.32-3.15,4.52,4.52,0,0,0-2.78-.81c-1.65,0-3.3.1-5,.1-1,0-1.88-.1-2.92-.1-.33,0-.52.19-.52.62s.33.42.71.42c1.32.28,1.22,1,1.22,2.45V15c0,1.6,0,2.12-1.36,2.35-.29.1-.62.19-.62.62s.19.51.52.51c1,0,2-.09,3-.09s2.26.09,3.39.09c.29,0,.52-.09.52-.51s-.42-.52-.71-.62c-1.36-.19-1.32-.8-1.32-2.35V11.61c0-.52-.09-.8.33-.8a.9.9,0,0,1,.71.19,12.67,12.67,0,0,1,1,1.93l2,4.57c.19.52.28.8.8.8h3.68c.28,0,.61,0,.61-.42a.54.54,0,0,0-.42-.61c-.95-.19-1-.71-1.46-1.75Z"/><path class="cls-1" d="M132.73,14.91c0,1.74.09,2.12-1.32,2.36a.75.75,0,0,0-.62.7c0,.29.19.43.52.43,1.65,0,3.44-.1,5.09-.1s3.4.1,5,.1c.52,0,.8.19.8-.52.1-1,.33-2.12.33-3.07,0-.42,0-.61-.33-.61-.94,0-.94,3.07-4.15,3.07-1.55,0-1.74-.9-1.74-2.36V6c0-1.75-.09-2.22,1.37-2.55a.54.54,0,0,0,.61-.52.45.45,0,0,0-.52-.52c-1,0-2.07.1-3.11.1s-2.26-.1-3.39-.1c-.33,0-.52.1-.52.52s.42.52.7.52c1.37.28,1.23.9,1.23,2.55v8.91"/><path class="cls-1" d="M148.38,5.1c0-.28,0-1,.28-1.13a4.44,4.44,0,0,1,1.89-.28,2.44,2.44,0,0,1,1.74.52,12.25,12.25,0,0,1,1,1.32c.19.28.33.7.71.7s.42-.42.42-.8v-2c0-.42.1-.89-.42-.89-2.27,0-4.48.09-6.84.09-1.32,0-2.5-.09-3.91-.09a.55.55,0,0,0-.52.61c0,.19.42.43.71.43,1.46.28,1.36,1,1.36,2.54v9.05c0,1.51,0,2-1.46,2.22-.28.09-.61.19-.61.61a.46.46,0,0,0,.52.52c2.17,0,4.24-.09,6.32-.09,1.65,0,3.2.09,4.85.09.28,0,.33-.19.33-.52l.28-2c0-.19.19-.9.19-1.14,0-.42-.19-.61-.52-.61s-.61.61-.7.9a3.67,3.67,0,0,1-3.54,2.35,1.93,1.93,0,0,1-1.65-.7,4.9,4.9,0,0,1-.42-2.12V11.7c0-.7,0-1,.7-1.13h1c2.35,0,1.55,2.36,2.59,2.36.33,0,.42-.28.42-.71,0-.71-.09-1.41-.09-2.12A16.79,16.79,0,0,0,153.09,8c0-.43-.09-.71-.42-.71s-.52.52-.61.8c-.19.71-.43,1.23-1,1.42a12.26,12.26,0,0,1-1.84.09c-.8,0-.8-.52-.8-1.23V5.1"/><path class="cls-1" d="M162.05,9.34c-.71,0-.8,0-.8-.89V6c0-1.75-.09-2.22,1.37-2.55.28,0,.61-.09.61-.52a.47.47,0,0,0-.52-.52c-1,0-2.07.1-3.11.1s-2.26-.1-3.39-.1c-.33,0-.52.1-.52.52s.42.52.7.52c1.37.28,1.32.9,1.32,2.55v8.91c0,1.6,0,2.12-1.36,2.36-.29.09-.62.18-.62.61s.19.52.52.52c1,0,2.08-.1,3.11-.1s2.27.1,3.4.1a.45.45,0,0,0,.52-.52c0-.43-.43-.52-.71-.61-1.37-.19-1.32-.81-1.32-2.36V11.37c0-1-.09-.89.85-.89H166c.62,0,.62-.1.71.61V15c0,1.6,0,2.12-1.37,2.35-.28.1-.61.19-.61.62s.19.51.52.51c1,0,2.07-.09,3.11-.09s2.26.09,3.39.09c.29,0,.52-.09.52-.51s-.42-.52-.7-.62c-1.37-.19-1.32-.8-1.32-2.35V6c0-1.75-.1-2.22,1.36-2.55.29,0,.62-.09.62-.52a.47.47,0,0,0-.52-.52c-1,0-2.08.1-3.11.1s-2.27-.1-3.4-.1c-.33,0-.52.1-.52.52s.43.52.71.52c1.37.28,1.32.9,1.32,2.55V8.45c0,.89,0,.89-.8.89h-3.87"/><path class="cls-1" d="M178.32,5.2V4c.09-.28.7-.52,1-.52,1.47,0,2.36,1.51,2.36,3.16a3.25,3.25,0,0,1-1,2.55,2.55,2.55,0,0,1-1.88.61c-.52,0-.43-.52-.43-1.13V5.2M184,12.27c-.52-1.13-1-2-2.26-2.22,1.89-.19,3.72-1.22,3.72-3.68a4.11,4.11,0,0,0-1.32-3.15,4.51,4.51,0,0,0-2.78-.81c-1.65,0-3.3.1-5,.1-1,0-2-.1-3-.1-.33,0-.52.19-.52.62s.33.42.71.42c1.32.28,1.22,1,1.22,2.45V15c0,1.6,0,2.12-1.37,2.35-.28.1-.61.19-.61.62s.19.51.52.51c1,0,2.07-.09,3.11-.09s2.26.09,3.4.09c.28,0,.51-.09.51-.51s-.42-.52-.7-.62c-1.37-.19-1.32-.8-1.32-2.35V11.61c0-.52-.1-.8.33-.8a.87.87,0,0,1,.7.19,11.85,11.85,0,0,1,1,1.93l2,4.57c.19.52.29.8.8.8h3.68c.24,0,.61,0,.61-.42a.53.53,0,0,0-.42-.61c-.94-.19-1-.71-1.46-1.75Z"/><path class="cls-1" d="M193.12,5.1c0-.28,0-1,.28-1.13.29-.28,1.47-.28,1.89-.28a2.72,2.72,0,0,1,1.74.52A11.19,11.19,0,0,1,198,5.53c.19.28.33.7.7.7s.43-.42.43-.8v-2c0-.42.09-.89-.33-.89-2.36,0-4.57.09-6.84.09-1.32,0-2.59-.09-3.91-.09-.33,0-.52.19-.52.61,0,.19.43.43.71.43,1.37.28,1.32,1,1.32,2.54v9.05c0,1.51.09,2-1.37,2.22-.28.09-.61.19-.61.61s.19.52.52.52c2.07,0,4.15-.09,6.31-.09,1.56,0,3.21.09,4.86.09.28,0,.28-.19.33-.52l.19-2a4.61,4.61,0,0,0,.19-1.14c0-.42-.1-.61-.43-.61s-.61.61-.8.9a3.64,3.64,0,0,1-3.44,2.35,2.16,2.16,0,0,1-1.74-.7,4.79,4.79,0,0,1-.33-2.12V11.7c0-.7-.1-1,.7-1.13h1c2.26,0,1.46,2.36,2.59,2.36.33,0,.42-.28.42-.71a16.71,16.71,0,0,1-.09-2.12A16.63,16.63,0,0,1,197.88,8c0-.43-.09-.71-.42-.71s-.52.52-.61.8a1.79,1.79,0,0,1-1.14,1.42,11.29,11.29,0,0,1-1.83.09c-.81,0-.71-.52-.71-1.23V5.1"/><path class="cls-1" d="M205.76,5.2a5.06,5.06,0,0,1,0-1.23,1.13,1.13,0,0,1,.94-.52c1.56,0,2.4,1.51,2.4,3.16a3.27,3.27,0,0,1-1,2.55,2.59,2.59,0,0,1-1.89.61c-.61,0-.42-.52-.42-1.13V5.2m5.7,7.07c-.52-1.13-1-2-2.26-2.22,1.84-.19,3.63-1.22,3.63-3.68a4.09,4.09,0,0,0-1.23-3.15,4.52,4.52,0,0,0-2.78-.81c-1.65,0-3.39.1-5,.1-1,0-2.07-.1-3-.1a.58.58,0,0,0-.62.62c0,.42.43.42.71.42,1.37.28,1.23,1,1.23,2.45V15c0,1.6.09,2.12-1.37,2.35-.28.1-.52.19-.52.62s.19.51.52.51c1,0,2.07-.09,3.11-.09s2.26.09,3.4.09c.28,0,.51-.09.51-.51s-.42-.52-.7-.62c-1.37-.19-1.32-.8-1.32-2.35V11.61c0-.52-.1-.8.23-.8a1.11,1.11,0,0,1,.8.19,11.85,11.85,0,0,1,1,1.93l2,4.57c.19.52.24.8.71.8h3.68c.33,0,.7,0,.7-.42a.54.54,0,0,0-.42-.61c-.94-.19-1.13-.71-1.56-1.75Z"/><path class="cls-2" d="M81.1,28.53l-2.5-5.09a2.33,2.33,0,0,1-.28-.71c0-.18.28-.28.42-.28.33-.09,1,0,1-.42s-.52-.29-.8-.29c-.71,0-1.46.1-2.17.1s-1.74-.1-2.59-.1c-.28,0-.71,0-.71.29s.19.28.43.42a1.2,1.2,0,0,1,.8.19,3.17,3.17,0,0,1,.52,1l3.91,7.73c.19.42.19.61.8.61.33,0,.42-.19.52-.42l3.82-7.83c.33-.61.52-1.22,1.32-1.32.28-.09.8,0,.8-.28a.48.48,0,0,0-.52-.43c-.52,0-1,.1-1.56.1s-1-.1-1.65-.1c-.28,0-.51.1-.51.29,0,.42.42.28.8.42s.7.19.7.52a3.12,3.12,0,0,1-.33,1L81.1,28.53"/><path class="cls-2" d="M91.47,23.44a1.25,1.25,0,0,1,.19-.8,10.15,10.15,0,0,1,1.65-.09,2.56,2.56,0,0,1,1.46.28,11,11,0,0,1,.85.8c.1.19.29.52.52.52.43,0,.43-.28.43-.52V22.31c0-.28.09-.61-.33-.61-1.89,0-3.92.09-5.8.09-1.13,0-2.17-.09-3.3-.09a.4.4,0,0,0-.43.42c0,.19.33.19.62.28,1.22.1,1.13.62,1.13,1.51v5.71c0,1,0,1.32-1.23,1.51-.28,0-.52.09-.52.28s.19.28.43.28h9.43c.23,0,.23-.09.23-.28l.28-1.23c0-.18.1-.61.1-.7,0-.29-.1-.43-.33-.43s-.52.28-.71.62a3,3,0,0,1-2.92,1.41c-.52,0-1.13-.09-1.37-.52-.33-.28-.33-.89-.33-1.32V27.4c0-.42,0-.71.61-.71h.81c1.88,0,1.32,1.51,2.16,1.51a.38.38,0,0,0,.43-.42,7.48,7.48,0,0,1-.1-1.42,7.18,7.18,0,0,1,.1-1.41.39.39,0,0,0-.43-.42c-.28,0-.42.28-.51.61a1,1,0,0,1-.85.8,8.51,8.51,0,0,1-1.56.09c-.61,0-.61-.28-.61-.8V23.44"/><path class="cls-2" d="M102.55,23.44c0-.19-.09-.61,0-.71s.52-.28.8-.28a1.93,1.93,0,0,1,2.08,1.93,2,2,0,0,1-.85,1.61,3.35,3.35,0,0,1-1.65.42c-.42,0-.33-.42-.33-.8V23.44M107.32,28a2.16,2.16,0,0,0-1.89-1.41c1.65-.09,3.21-.8,3.21-2.36a2.5,2.5,0,0,0-1.14-2,4.46,4.46,0,0,0-2.35-.52c-1.37,0-2.79.09-4.25.09-.85,0-1.74-.09-2.5-.09-.33,0-.51.09-.51.42s.33.19.61.28c1.13.1,1,.62,1,1.51v5.71c0,1,0,1.32-1.23,1.51-.19,0-.52.09-.52.28s.24.28.52.28h5.47c.28,0,.42,0,.42-.28s-.33-.28-.61-.28c-1.13-.19-1-.62-1-1.51V27.5c0-.29-.09-.52.29-.52a1.46,1.46,0,0,1,.61.09,5.21,5.21,0,0,1,.85,1.23L106,31.22c.19.28.28.52.71.52h3c.29,0,.62,0,.62-.28s-.19-.29-.43-.29c-.8-.18-.85-.51-1.22-1.13Z"/><path class="cls-2" d="M118.72,22.64c0-.28.1-.52-.18-.71a11.2,11.2,0,0,0-2.41-.42c-2.17,0-4.85,1.13-4.85,3.25,0,1.6,1.83,2.36,3.3,2.83,1.13.42,2.78.8,2.78,2s-1.37,1.74-2.5,1.74a2.48,2.48,0,0,1-1.89-.61c-.52-.28-.61-.8-.8-1.32-.09-.19-.19-.71-.61-.71s-.33.61-.33.8v.9c0,.52-.1.71.52,1a11.71,11.71,0,0,0,3.11.52,6.44,6.44,0,0,0,3.39-.9,3.58,3.58,0,0,0,1.37-2.64c0-1.84-1.37-2.64-3.21-3.16l-.94-.28c-.8-.19-1.74-.52-1.74-1.32,0-1,1.13-1.51,2.17-1.51,1.22,0,1.74.89,2.07,1.84.09.19.19.42.52.42s.28-.42.28-.61V22.64"/><path class="cls-2" d="M124,24c0-1.13-.09-1.41,1.23-1.51.19-.09.52-.09.52-.42s-.28-.29-.52-.29c-.85,0-1.74.1-2.59.1s-1.89-.1-2.88-.1c-.28,0-.42.1-.42.29s.33.28.61.42c1.13.1,1,.52,1,1.51v5.66c0,1,.09,1.32-1.13,1.51-.24,0-.52.09-.52.28s.19.28.42.28h5.47c.28,0,.52,0,.52-.28s-.33-.28-.61-.28c-1.23-.19-1.14-.62-1.14-1.51V24"/><path class="cls-2" d="M136.55,29.52c0-.19,0-.61-.43-.61-.19,0-.33.19-.42.28a4.2,4.2,0,0,1-1.23,1.51,3,3,0,0,1-1.88.62,4.11,4.11,0,0,1-3.21-1.61,5.49,5.49,0,0,1-.85-3.06,5.4,5.4,0,0,1,.94-3.16,4.32,4.32,0,0,1,3.12-1.42c2.4,0,2.49,1.94,3.39,1.94a.29.29,0,0,0,.33-.29c0-.09-.09-.28-.09-.42l-.19-.8c-.1-.52-.1-.52-.52-.71a13.52,13.52,0,0,0-2.78-.28,9.85,9.85,0,0,0-5.19,1.32,4.84,4.84,0,0,0-2.4,4,4.92,4.92,0,0,0,2.35,4A9,9,0,0,0,132.35,32a8,8,0,0,0,3.54-.71c.61-.28.61-.52.61-1l.05-.71"/><path class="cls-2" d="M142.53,26.08c-.61,0-.61,0-.61-.61V24c0-1.13-.09-1.41,1.13-1.51.24-.09.52-.09.52-.42s-.19-.29-.42-.29c-.85,0-1.75.1-2.69.1s-1.84-.1-2.78-.1c-.29,0-.52.1-.52.29s.42.28.61.42c1.23.1,1.13.52,1.13,1.51v5.66c0,1,0,1.32-1.22,1.51-.19,0-.52.09-.52.28s.28.28.52.28h5.47c.28,0,.42,0,.42-.28s-.33-.28-.61-.28c-1.13-.19-1-.62-1-1.51V27.4c0-.61-.09-.61.71-.61h3.3c.52,0,.52,0,.61.42v2.46c0,1,0,1.32-1.22,1.5-.19,0-.52.1-.52.29s.19.28.42.28h5.56c.29,0,.43,0,.43-.28s-.33-.29-.61-.29c-1.14-.18-1-.61-1-1.5V24c0-1.13-.1-1.41,1.13-1.51.28-.09.52-.09.52-.42s-.19-.29-.43-.29c-.84,0-1.74.1-2.68.1s-1.84-.1-2.88-.1c-.28,0-.42.1-.42.29s.42.28.61.42c1.23.1,1.13.52,1.13,1.51v1.51c0,.61,0,.61-.71.61h-3.3"/><path class="cls-2" d="M157.48,23.44c0-.19,0-.61.28-.8a9.31,9.31,0,0,1,1.56-.09,2.42,2.42,0,0,1,1.46.28,7.36,7.36,0,0,1,.85.8c.19.19.23.52.61.52s.33-.28.33-.52V22.31c0-.28.1-.61-.33-.61-1.89,0-3.82.09-5.8.09-1,0-2.17-.09-3.2-.09a.48.48,0,0,0-.52.42c0,.19.33.19.61.28,1.23.1,1.13.62,1.13,1.51v5.71c0,1,.1,1.32-1.22,1.51-.19,0-.52.09-.52.28s.28.28.52.28h9.33c.28,0,.33-.09.33-.28l.19-1.23a2.75,2.75,0,0,0,.19-.7c0-.29-.1-.43-.43-.43s-.52.28-.61.62a3.27,3.27,0,0,1-3,1.41,1.71,1.71,0,0,1-1.36-.52,2.34,2.34,0,0,1-.33-1.32V27.4c0-.42,0-.71.61-.71h.8c2,0,1.32,1.51,2.26,1.51.29,0,.33-.19.33-.42,0-.52-.09-1-.09-1.42a6.92,6.92,0,0,0,.09-1.41c0-.19-.09-.42-.33-.42a.55.55,0,0,0-.52.61,1.16,1.16,0,0,1-.94.8,8.46,8.46,0,0,1-1.55.09c-.62,0-.62-.28-.62-.8V23.44"/><path class="cls-2" d="M168.56,23.44v-.71c.09-.18.61-.28.85-.28a1.84,1.84,0,0,1,2,1.93,1.82,1.82,0,0,1-.85,1.61,3,3,0,0,1-1.56.42c-.52,0-.42-.42-.42-.8V23.44M173.41,28a2.13,2.13,0,0,0-1.88-1.41c1.55-.09,3.11-.8,3.11-2.36a2.49,2.49,0,0,0-1.13-2,4,4,0,0,0-2.26-.52c-1.47,0-2.88.09-4.34.09-.8,0-1.65-.09-2.5-.09-.24,0-.52.09-.52.42s.33.19.61.28c1.14.1,1,.62,1,1.51v5.71c0,1,.1,1.32-1.22,1.51-.19,0-.43.09-.43.28s.19.28.43.28h5.46c.29,0,.52,0,.52-.28s-.33-.28-.61-.28c-1.23-.19-1.13-.62-1.13-1.51V27.5c0-.29-.1-.52.28-.52a1.23,1.23,0,0,1,.61.09,4.06,4.06,0,0,1,.85,1.23l1.75,2.92c.19.28.19.52.61.52h3c.28,0,.61,0,.61-.28s-.19-.29-.42-.29c-.81-.18-.85-.51-1.23-1.13Z"/><path class="cls-2" d="M186.62,24.05a4.6,4.6,0,0,1,.18-1.13c.1-.42.33-.52.81-.52.28-.09.7,0,.7-.28a.39.39,0,0,0-.42-.42c-.52,0-1.13.09-1.65.09s-1.13-.09-1.65-.09c-.24,0-.61,0-.61.42s.42.19.7.28c.43,0,.8.1.95.43a3,3,0,0,1,.18,1.32V28.2c0,.8.1,1.51-.51,2.13a3.5,3.5,0,0,1-2.69.89A2.68,2.68,0,0,1,180,30a8,8,0,0,1-.28-2.55V24c0-1.13-.09-1.41,1.23-1.51.19-.09.52-.09.52-.42s-.29-.29-.52-.29c-.85,0-1.75.1-2.6.1s-1.88-.1-2.87-.1c-.24,0-.43.1-.43.29s.33.28.62.42c1.13.1,1,.52,1,1.51v4.38a2.8,2.8,0,0,0,1.56,2.93,8.44,8.44,0,0,0,3.63.71,6.53,6.53,0,0,0,3.73-.9c1.13-.8,1-1.75,1-2.83v-4.2"/><path class="cls-2" d="M199.16,27.92l-5.28-5.56c-.43-.52-.33-.62-1.14-.62h-3.15c-.29,0-.71,0-.71.29s.42.28.8.42c.85,0,.8.71.8,1.32v4.95a6.51,6.51,0,0,1-.09,1.94,1,1,0,0,1-.8.51c-.33,0-.81,0-.81.29s.29.28.52.28h3.49c.28,0,.52,0,.52-.28s-.52-.29-.8-.29-.85-.18-1-.61a9.84,9.84,0,0,1-.09-1.6V23.68l7.26,7.92c.28.28.52.61.94.61.61,0,.52-.28.52-.71V23.91c0-.61-.1-1.32.8-1.41.28-.1.94,0,.94-.28a.47.47,0,0,0-.51-.43c-.52,0-1.14.1-1.66.1s-1.13-.1-1.65-.1c-.28,0-.7,0-.7.43s.42.18.7.28a1,1,0,0,1,1,.52,4.14,4.14,0,0,1,.1,1.13v3.77"/><path class="cls-2" d="M210.52,30a2.47,2.47,0,0,1-.19,1.13,3,3,0,0,1-1.32.28c-2.88,0-4-2.54-4-4.67a5.49,5.49,0,0,1,.94-3.06,3.93,3.93,0,0,1,3-1.51c2.59,0,2.4,1.93,3.3,1.93.28,0,.42-.09.42-.28a2.1,2.1,0,0,0-.18-.8c-.1-.9,0-.9-1-1.13a11.21,11.21,0,0,0-2.5-.28c-3.63,0-7.35,2-7.35,5.37a4.57,4.57,0,0,0,2.36,4A9.84,9.84,0,0,0,209,32a9.07,9.07,0,0,0,3.4-.52c.33-.09,1.22-.51,1.22-.89,0-.19-.09-.52-.09-.61l-.1-1.51c0-.71.1-.81.85-.9.29-.09.62-.09.62-.42s-.29-.29-.52-.29h-5.05c-.28,0-.8,0-.8.43,0,.19.28.28.52.28a1.81,1.81,0,0,1,1.23.28,2.44,2.44,0,0,1,.28,1.42V30"/></svg>