<svg id="Laag_1" data-name="Laag 1" xmlns="http://www.w3.org/2000/svg" viewBox="0 0 159.78 40"><defs><style>.cls-1{fill:#f173ac;}.cls-1,.cls-2{fill-rule:evenodd;}.cls-2{fill:#888780;}</style></defs><path class="cls-1" d="M1.51,29.23H4.66V15.59H1.51ZM1.05,9.91a1.91,1.91,0,0,1,.59-1.42A2,2,0,0,1,3.09,7.9a2,2,0,1,1,0,4.08,2,2,0,0,1-1.45-.59,2.09,2.09,0,0,1-.59-1.48Zm7.62,5.68h3.16v1.25a5.15,5.15,0,0,1,3.71-1.64,4.64,4.64,0,0,1,3.71,1.51,6.19,6.19,0,0,1,1.15,4.17v8.38H17.25V21.61a5.2,5.2,0,0,0-.56-2.8,2.26,2.26,0,0,0-2-.78,2.44,2.44,0,0,0-2.24,1,7.07,7.07,0,0,0-.66,3.55V29.2H8.64l0-13.61Z"/><path class="cls-2" d="M32.33,17.89l-2.59,1.38c-.4-.82-.92-1.24-1.51-1.24a1.08,1.08,0,0,0-.76.29,1,1,0,0,0-.33.72c0,.53.59,1.06,1.81,1.55a10.67,10.67,0,0,1,3.38,2,3.3,3.3,0,0,1,.86,2.47,4.37,4.37,0,0,1-1.45,3.32,4.9,4.9,0,0,1-3.42,1.25,5,5,0,0,1-4.86-3.36L26.16,25A5.58,5.58,0,0,0,27,26.27a1.92,1.92,0,0,0,1.38.53c1.05,0,1.61-.49,1.61-1.45,0-.55-.43-1.08-1.25-1.57a10.32,10.32,0,0,0-.95-.46c-.33-.17-.63-.3-.95-.46a5.76,5.76,0,0,1-1.94-1.35,3.43,3.43,0,0,1-.73-2.2,3.81,3.81,0,0,1,1.22-2.93,4.18,4.18,0,0,1,3-1.15,4.06,4.06,0,0,1,3.91,2.66M36.05,5.57H39.2V16.71a5.4,5.4,0,0,1,3.72-1.51,4.8,4.8,0,0,1,3.71,1.51,6.07,6.07,0,0,1,1.18,4.17v8.38H44.66V21.15a3.82,3.82,0,0,0-.59-2.37,2.27,2.27,0,0,0-1.88-.72,2.6,2.6,0,0,0-2.33,1,7.07,7.07,0,0,0-.66,3.55v6.6H36.05Zm18.3,16.79a4.77,4.77,0,0,0,1,3.19,3.75,3.75,0,0,0,5.56,0A4.6,4.6,0,0,0,62,22.43,4.64,4.64,0,0,0,61,19.27a3.71,3.71,0,0,0-5.52,0,4.37,4.37,0,0,0-1.09,3.05Zm7.5-6.77H65V29.23H61.85V27.79A6.06,6.06,0,0,1,53,27.56a7.6,7.6,0,0,1-1.84-5.2A7.46,7.46,0,0,1,53,17.24a5.91,5.91,0,0,1,8.87-.07V15.59Zm7.13,0h3.15v1.22a6.59,6.59,0,0,1,1.55-1.25,3.51,3.51,0,0,1,1.61-.36,4.85,4.85,0,0,1,2.59.82l-1.44,2.89a3.09,3.09,0,0,0-1.74-.65c-1.71,0-2.6,1.28-2.6,3.91v7.06H69V15.59Zm19.72,5A3,3,0,0,0,85.51,18a3.72,3.72,0,0,0-1.09.16,3.38,3.38,0,0,0-.92.49,4.35,4.35,0,0,0-.69.79,3.71,3.71,0,0,0-.46,1.05H88.7ZM92,23.15H82.16a4.07,4.07,0,0,0,1.08,2.66,3.35,3.35,0,0,0,2.47,1,3.22,3.22,0,0,0,1.93-.56,7.2,7.2,0,0,0,1.71-2.07L92,25.65a10.44,10.44,0,0,1-1.32,1.81,7.5,7.5,0,0,1-1.48,1.25,5.67,5.67,0,0,1-1.67.69,8,8,0,0,1-2,.23,6.34,6.34,0,0,1-4.89-2,7.23,7.23,0,0,1-1.84-5.22,7.42,7.42,0,0,1,1.8-5.23,6.23,6.23,0,0,1,4.8-2,6.11,6.11,0,0,1,4.77,1.91A7.6,7.6,0,0,1,92,22.43Zm6-.79A4.77,4.77,0,0,0,99,25.55a3.46,3.46,0,0,0,2.72,1.25,3.51,3.51,0,0,0,2.83-1.22,4.6,4.6,0,0,0,1.08-3.15,4.64,4.64,0,0,0-1.08-3.16,3.71,3.71,0,0,0-5.52,0A4.42,4.42,0,0,0,98,22.36Zm7.5-16.79h3.15V29.23h-3.15V27.79a5.92,5.92,0,0,1-4.21,1.8,6.13,6.13,0,0,1-4.67-2,7.65,7.65,0,0,1-1.84-5.2,7.38,7.38,0,0,1,1.84-5.09,5.83,5.83,0,0,1,4.57-2.07,5.89,5.89,0,0,1,4.31,2V5.57Z"/><path class="cls-2" d="M119.49,18.52c-1.61,1.08-2.3,4-4.57,3.38-.79-2.49,1.71-4.27,3.29-5.78,1.38-1.28,3-2.66,3.64-4.47.92-.16.86-1.09,2.11-.46,1.41.66,1.08,1,1.71,2.2-.86,3.29,1.64,7.26,1.48,10.71-.14,2.67-3,1.12-2.9-1a15,15,0,0,0-1.44-6.31c-2.14,3-2.27,9.2-.1,12.36,2.46,3.58,5,6.14,9.63,7.16,3.65.79,7.56.92,10.65-1.25,1.28-1.31,2.86-2.13,4-3.58.49-.63.39-1.51.72-2a1.9,1.9,0,0,1,2.76.42c-.72,1.81-1.22,3.72-3.09,4.84a50.36,50.36,0,0,1-5.16,2.82,15.94,15.94,0,0,1-11.44.53c-4.6-1.42-9-4.67-10.94-9.2-1.45-3.49-.85-6.71-.36-10.42"/><path class="cls-1" d="M153.6,20.1c1.58-.37,2.4-1.61,3.62-2.4,1.48-1,1.94.82,1.38,2A8.18,8.18,0,0,1,154.88,23a13.62,13.62,0,0,1-2.1.92c-.89.93-.13,1.12-1.64,1.55-1.94.56-1.71-2.27-2.14-3.58a15.37,15.37,0,0,0-3.12-6c-1.42-1.45-.33-1.84,1-2.17a26.93,26.93,0,0,1,4.24,5.49c1.19-2.93.66-6.91-.59-9.73-1.77-4-5.55-5.82-9.69-5.95-3-.1-6.25,1.25-8.61,2.6-1,.55-6.05,4.3-6,1.15,0-2.5,6.71-4.24,8.71-5.16,3.55-1.65,7.13-1.38,10.95,0a12.34,12.34,0,0,1,7.59,7.79c1.18,3.45.1,6.84.16,10.26"/></svg>