<?xml version="1.0" encoding="UTF-8" standalone="no"?> <svg xmlns="http://www.w3.org/2000/svg" xmlns:xlink="http://www.w3.org/1999/xlink" xmlns:serif="http://www.serif.com/" width="100%" height="100%" viewBox="0 0 3992 1609" version="1.1" xml:space="preserve" style="fill-rule:evenodd;clip-rule:evenodd;stroke-linejoin:round;stroke-miterlimit:2;"><g><path d="M1688.37,0.775l378.658,467.504l192.5,-233.75l-190.383,-233.754l-380.775,0Z" style="fill:#84b204;fill-rule:nonzero;"></path><path d="M1688.48,0.775l-380.77,465.387l380.77,0l380.384,-465.387l-380.384,0Z" style="fill:#a8e305;fill-rule:nonzero;"></path><path d="M1895.42,256.571l-17.683,-21.829l-0,-0.084l191.145,-233.883l0.259,0l-173.638,255.713l-0.083,0.083Z" style="fill:#577504;fill-rule:nonzero;"></path><path d="M2246.05,782.292l380.771,-465.388l-380.771,0l-380.388,465.388l380.388,-0Z" style="fill:#013d7e;fill-rule:nonzero;"></path><path d="M2074.36,526.975l-17.704,21.633l0,0.084l189.129,233.6l0.259,-0l-171.6,-255.234l-0.084,-0.083Z" style="fill:#002852;fill-rule:nonzero;"></path><path d="M2245.83,782.292l-378.658,-467.504l-192.5,233.754l190.383,233.75l380.775,-0Z" style="fill:#0051ab;fill-rule:nonzero;"></path><path d="M329.613,1029.88l-0,571.117l-86.48,-0l-190.104,-465.871l-0.816,-0l-0,465.871l-52.213,-0l0,-571.117l66.904,-0l208.042,505.025l1.633,-0l0,-505.025l53.034,-0Z" style="fill:#303235;fill-rule:nonzero;"></path><path d="M771.829,1029.88l0,57.104l-180.312,0l-0,198.263l141.146,-0l-0,57.116l-141.146,0l-0,199.896l181.945,0l0,57.921l-238.249,0l-0,-570.3l236.616,-0Z" style="fill:#303235;fill-rule:nonzero;"></path><path d="M1198.54,1176.73c-0,-20.121 -3.813,-36.308 -11.425,-48.537c-7.621,-12.246 -17.005,-21.755 -28.15,-28.563c-11.15,-6.796 -22.713,-11.279 -34.675,-13.462c-11.967,-2.163 -22.034,-3.259 -30.192,-3.259c-8.158,0 -18.229,1.23 -30.179,3.671c-11.971,2.442 -23.396,7.075 -34.267,13.871c-10.891,6.804 -20.275,16.317 -28.15,28.554c-7.896,12.234 -11.833,28.421 -11.833,48.542l-0,280.667c-0,20.683 3.937,36.854 11.833,48.549c7.875,11.696 17.259,20.671 28.15,26.921c10.871,6.254 22.296,10.192 34.267,11.825c11.95,1.638 22.021,2.45 30.179,2.45c8.158,0 18.225,-0.941 30.192,-2.858c11.962,-1.896 23.525,-5.979 34.675,-12.229c11.145,-6.254 20.529,-15.229 28.15,-26.925c7.612,-11.7 11.425,-27.604 11.425,-47.733l-0,-281.484Zm54.666,281.484c0,11.97 -2.325,26.516 -6.941,43.645c-4.629,17.138 -13.05,33.596 -25.292,49.367c-12.233,15.783 -28.696,29.242 -49.358,40.387c-20.679,11.138 -46.788,16.721 -78.329,16.721c-31,0 -56.571,-5.583 -76.692,-16.721c-20.129,-11.145 -36.304,-24.604 -48.546,-40.387c-12.233,-15.771 -20.804,-32.229 -25.7,-49.367c-4.892,-17.129 -7.346,-31.675 -7.346,-43.645l0,-280.667c0,-11.963 2.309,-26.779 6.934,-44.463c4.62,-17.675 12.916,-34.679 24.895,-50.991c11.95,-16.321 28.267,-30.321 48.946,-42.017c20.663,-11.696 46.771,-17.542 78.321,-17.542c31.008,0 56.708,5.709 77.108,17.134c20.392,11.416 36.717,25.291 48.946,41.608c12.242,16.312 20.813,33.321 25.7,50.987c4.904,17.688 7.354,32.517 7.354,44.467l0,281.484Z" style="fill:#303235;fill-rule:nonzero;"></path><path d="M1493.25,1559.97l79.033,-0c64.338,-0 96.509,-39.459 96.509,-118.367l-0,-258.267c-0,-80.037 -32.171,-120.054 -96.509,-120.054l-79.033,0l0,496.688Zm-51.116,41.025l-0,-578.738l130.149,0c21.967,0 41.471,2.975 58.513,8.913c17.029,5.937 31.096,14.008 42.196,24.208c11.1,10.208 20.183,22.708 27.242,37.496c7.058,14.8 12.104,30.492 15.133,47.079c3.025,16.596 4.541,34.863 4.541,54.817l0,235.395c0,113.884 -49.212,170.83 -147.625,170.83l-130.149,-0Z" style="fill:#303235;fill-rule:nonzero;"></path><rect x="1889.12" y="1029.88" width="53.029" height="571.117" style="fill:#303235;fill-rule:nonzero;"></rect><rect x="2643.8" y="1029.88" width="53.029" height="571.117" style="fill:#303235;fill-rule:nonzero;"></rect><path d="M3170.05,1084.54l-128.092,-0l0,516.454l-54.662,-0l-0,-516.454l-132.18,-0l0,-54.663l314.934,-0l-0,54.663Z" style="fill:#303235;fill-rule:nonzero;"></path><path d="M3425.42,1092.7l-0.817,-0c-10.891,49.504 -21.625,98.317 -32.233,146.45c-10.6,48.137 -21.35,96.958 -32.221,146.45l128.096,-0l-62.825,-292.9Zm-115.038,507.479l-55.483,0l130.538,-571.117l77.512,0l130.542,571.117l-54.667,0l-35.9,-155.838l-157.462,0l-35.08,155.838Z" style="fill:#303235;fill-rule:nonzero;"></path><path d="M3756.66,1029.88l56.296,-0l0,514.821l177.863,-0l-0,56.296l-234.159,-0l0,-571.117Z" style="fill:#303235;fill-rule:nonzero;"></path><path d="M2422.18,1174.47c-0.925,-13.334 -2.187,-27.213 -4.687,-41.125c-2.5,-14.004 -5.884,-26.5 -10.038,-37.142c-4.15,-10.604 -9.796,-20.971 -16.8,-30.796c-6.979,-9.862 -15.258,-18.091 -24.608,-24.466c-9.367,-6.338 -20.917,-11.404 -34.329,-15.071c-13.409,-3.671 -28.58,-5.534 -45.092,-5.534c-51.975,0 -76.712,18.896 -99.763,46.221c-25.908,30.713 -39.183,77.196 -39.183,138.371l0,104.229l-0.016,0l-0,139.717c-0,21.858 3.52,42.429 10.55,61.671c7.02,19.271 17.037,36.062 30.058,50.371c13.004,14.321 28.362,25.766 46.062,34.354c17.688,8.592 37.217,12.879 58.559,12.879c7.287,0 20.695,-2.083 40.212,-6.246c19.517,-4.158 44.621,-14.571 75.346,-31.233l0,-181.138l-80.808,0l-0,53.879l26.933,0l0,93.688c-17.171,8.858 -30.054,14.188 -38.642,16.008c-8.587,1.825 -15.5,2.734 -20.696,2.734c-12.5,-0 -24.341,-2.471 -35.525,-7.421c-11.204,-4.942 -21.079,-11.838 -29.67,-20.692c-8.588,-8.846 -15.5,-18.996 -20.692,-30.45c-5.213,-11.442 -7.804,-23.933 -7.804,-37.479l-0,-150.642l-0.071,0l0,-126.266c0,-16.238 1.679,-31.238 4.988,-44.592c1.595,-6.45 3.458,-11.621 3.991,-13.129c2.271,-6.429 5.729,-16.213 12.288,-26.467c4.483,-7.004 12.066,-18.571 26.537,-27.229c10.571,-6.333 20.054,-8.258 22.792,-8.758c8.983,-1.655 16.258,-1.038 20.008,-0.696c6.45,0.591 11.421,1.85 15.563,2.917c4.175,1.079 9.316,2.399 14.862,4.866c2.679,1.188 13.021,5.992 22.767,16.588c8.258,8.975 11.696,17.841 14.387,23.304c3.625,7.337 6.142,18.154 7.521,32.117c1.304,13.533 2.175,24.983 2.558,34.045c0.326,8.888 0.496,21.688 0.496,38.017l0,9.683l52.317,0l-0,-4.858c-0,-16.246 0.538,-31.075 -0.371,-44.229Z" style="fill:#303235;fill-rule:nonzero;"></path></g></svg> 