<svg id="Ebene_1" data-name="Ebene 1" xmlns="http://www.w3.org/2000/svg" viewBox="0 0 111.84 40"><defs><style>.cls-1{fill:#e30613;}</style></defs><path class="cls-1" d="M5.83,38.7H25.2A4.81,4.81,0,0,0,30,33.87V23.22H7.75v-2.9H30V18.4a4.81,4.81,0,0,0-4.82-4.83H5.83A4.81,4.81,0,0,0,1,18.4V29H23.22v2.9H1v1.93A4.81,4.81,0,0,0,5.83,38.7ZM10.65,5.83A4.84,4.84,0,1,0,15.5,1a4.83,4.83,0,0,0-4.85,4.83Z"/><path class="cls-1" d="M58.41,30c0-5.77-2.95-8.7-7.9-8.7H45.38V38.71h5.13c4.93,0,7.9-2.91,7.9-8.68Zm-2.7,0c0,4.4-1.93,6.6-5.18,6.6H47.88V23.4h2.66c3.24,0,5.17,2.23,5.17,6.63Zm9.1-8a1.59,1.59,0,1,0-1.58,1.5,1.56,1.56,0,0,0,1.58-1.5ZM64.73,38.7V26.05H60.65v1.6c.48,0,1.2.12,1.65.2V38.7ZM75.91,28.35v-2.3A5.32,5.32,0,0,0,75,26a4,4,0,0,0-3.58,2.47l0-2.4H69V38.7h2.43V31.85A3.55,3.55,0,0,1,75,28.28a6.25,6.25,0,0,1,.88.07Z"/><path class="cls-1" d="M88.05,31.65c0-3.8-1.73-5.9-5.1-5.9-3.63,0-5.6,2.7-5.6,6.65S79.55,39,83.4,39a13,13,0,0,0,3.85-.47l-.48-1.85a12.51,12.51,0,0,1-3,.4c-2.43,0-3.63-1.4-3.83-3.95H88c0-.43.06-1,.06-1.48Zm-2.55-.27H79.87C80,29,81,27.53,82.9,27.53s2.6,1.2,2.6,3.27Zm16.57,7.32a36.48,36.48,0,0,0-5.9-7.18l5.33-5.47H98.57l-4.73,4.89V20.32H91.42V38.69h2.42V32.47A43.73,43.73,0,0,1,99,38.69h3Zm8.77-.12-.42-1.8a6.44,6.44,0,0,1-1.65.22c-1.3,0-1.8-.63-1.8-2.07V28h3.27v-1.9H107v-3.9c-.85.42-1.75.82-2.43,1.07v2.83h-2V28h2V35.2c0,2.35,1,3.75,3.55,3.75a9.94,9.94,0,0,0,2.75-.37Z"/></svg>