<svg id="Ebene_1" data-name="Ebene 1" xmlns="http://www.w3.org/2000/svg" viewBox="0 0 115.23 40"><defs><style>.cls-1{fill:#1d1d1b;}.cls-2{fill:#f8af00;}</style></defs><polygon class="cls-1" points="1 1 7.77 1 10.31 19.38 10.39 19.38 12.93 1 19.7 1 14.46 25.37 6.27 25.37 1 1"/><polygon class="cls-1" points="20.55 1 26.92 1 26.92 9.94 30.81 9.94 30.81 1 37.15 1 37.15 25.37 30.81 25.37 30.81 15.33 26.92 15.33 26.92 25.37 20.55 25.37 20.55 1"/><polygon class="cls-1" points="38 1 44.77 1 47.31 19.38 47.39 19.38 49.96 1 56.7 1 51.46 25.37 43.27 25.37 38 1"/><polygon class="cls-1" points="3.4 27.89 6.42 27.89 7.54 36.08 7.59 36.08 8.74 27.89 11.74 27.89 9.39 38.77 5.74 38.77 3.4 27.89"/><polygon class="cls-1" points="12.11 27.89 18.58 27.89 18.58 30.21 14.96 30.21 14.96 32.06 18.33 32.06 18.33 34.28 14.96 34.28 14.96 36.45 18.7 36.45 18.7 38.77 12.11 38.77 12.11 27.89"/><path class="cls-1" d="M19.65,27.89h4.44c2.18,0,3,1.22,3,2.9,0,1.44-.57,2.39-1.85,2.59v0c1.38.12,1.78,1,1.78,2.44v.93a4.93,4.93,0,0,0,.12,1.5c.08.12.13.25.33.32v.15h-3a5.79,5.79,0,0,1-.27-2.07V36c0-1.22-.25-1.54-.92-1.54H22.5v4.37H19.65V27.89Zm2.85,4.59h.57a1.14,1.14,0,0,0,1.2-1.29c0-.88-.35-1.28-1.2-1.28h-.55v2.57Z"/><path class="cls-1" d="M32.56,31v-.25c0-.65-.25-1.18-.8-1.18a.87.87,0,0,0-.87.95c0,2.15,4.61,1.1,4.61,5.07C35.5,38,34.16,39,31.66,39S28,38.18,28,35.9v-.37h2.75v.25c0,.92.38,1.27.92,1.27a.94.94,0,0,0,.93-1c0-2.14-4.45-1.07-4.45-4.94,0-2.2,1.18-3.4,3.57-3.4s3.52,1,3.52,3.35H32.56Z"/><polygon class="cls-1" points="36.33 27.89 39.15 27.89 39.15 38.77 36.33 38.77 36.33 27.89"/><path class="cls-1" d="M44.67,31.19c0-1.23-.23-1.6-.78-1.6-.87,0-1,.8-1,3.72s.1,3.74,1,3.74.85-.6.85-2.67h2.75v.8c0,3-1.77,3.77-3.6,3.77C40.7,39,40,37.35,40,33.31s1-5.65,3.89-5.65c2.55,0,3.52,1.35,3.52,3.45v.67H44.67v-.59Z"/><polygon class="cls-1" points="48.41 27.89 51.26 27.89 51.26 31.88 52.98 31.88 52.98 27.89 55.83 27.89 55.83 38.77 52.98 38.77 52.98 34.28 51.26 34.28 51.26 38.77 48.41 38.77 48.41 27.89"/><polygon class="cls-1" points="57.08 27.89 63.52 27.89 63.52 30.21 59.92 30.21 59.92 32.06 63.29 32.06 63.29 34.28 59.92 34.28 59.92 36.45 63.67 36.45 63.67 38.77 57.08 38.77 57.08 27.89"/><path class="cls-1" d="M64.62,27.89h4.44c2.17,0,3,1.22,3,2.9,0,1.44-.57,2.39-1.85,2.59v0c1.38.12,1.78,1,1.78,2.44v.93a4.93,4.93,0,0,0,.12,1.5.69.69,0,0,0,.33.32v.15h-3a5.79,5.79,0,0,1-.27-2.07V36c0-1.22-.25-1.54-.93-1.54h-.75v4.37H64.64V27.89Zm2.84,4.59H68a1.14,1.14,0,0,0,1.2-1.29c0-.88-.35-1.28-1.2-1.28h-.55v2.57Z"/><path class="cls-1" d="M76,27.89v7.84c0,1.05.33,1.32.85,1.32s.85-.27.85-1.32V27.89h2.82V35c0,3-1.3,4-3.69,4s-3.7-.92-3.7-4V27.89Z"/><polygon class="cls-1" points="81.69 27.89 84.86 27.89 86.69 34.58 86.71 34.58 86.71 27.89 89.36 27.89 89.36 38.77 86.26 38.77 84.36 32.03 84.34 32.03 84.34 38.77 81.69 38.77 81.69 27.89"/><path class="cls-1" d="M94.28,32.86h3.64v5.92H96l0-1h0A2.33,2.33,0,0,1,93.58,39c-2.87,0-3.15-2-3.15-5.64s.7-5.65,4-5.65c2,0,3.44,1,3.44,3.65H95.18A4.18,4.18,0,0,0,95,30.09a.65.65,0,0,0-.65-.48c-.93,0-1,.8-1,3.72s.1,3.75,1,3.75c.6,0,1-.38,1-2.3h-1V32.86Z"/><polygon class="cls-1" points="99.02 27.89 105.46 27.89 105.46 30.21 101.84 30.21 101.84 32.06 105.24 32.06 105.24 34.28 101.84 34.28 101.84 36.45 105.59 36.45 105.59 38.77 99.02 38.77 99.02 27.89"/><polygon class="cls-1" points="106.56 27.89 109.73 27.89 111.56 34.58 111.58 34.58 111.58 27.89 114.23 27.89 114.23 38.77 111.13 38.77 109.23 32.03 109.21 32.03 109.21 38.77 106.56 38.77 106.56 27.89"/><polygon class="cls-2" points="57.08 25.37 62.19 25.37 67.49 1 62.37 1 57.08 25.37"/><polygon class="cls-2" points="64.79 25.39 69.91 25.37 75.2 1 70.08 1 64.79 25.39"/><polygon class="cls-2" points="72.58 25.37 77.7 25.37 82.99 1 77.87 1 72.58 25.37"/></svg>